<?xml version="1.0" encoding="UTF-8"?>
<svg xmlns="http://www.w3.org/2000/svg" xmlns:xlink="http://www.w3.org/1999/xlink" width="600px" height="408px" viewBox="0 0 599 408" version="1.1">
<g id="surface1">
<path style=" stroke:none;fill-rule:evenodd;fill:rgb(99.215686%,97.647059%,87.058824%);fill-opacity:1;" d="M -0.25 -0.25 C 199.414062 -0.25 399.082031 -0.25 598.75 -0.25 C 598.75 135.75 598.75 271.75 598.75 407.75 C 399.082031 407.75 199.414062 407.75 -0.25 407.75 C -0.25 271.75 -0.25 135.75 -0.25 -0.25 Z M -0.25 -0.25 "/>
<path style=" stroke:none;fill-rule:evenodd;fill:rgb(85.882353%,63.137255%,37.254902%);fill-opacity:1;" d="M 354.824219 40.042969 C 353.761719 39.558594 352.589844 39.390625 351.300781 39.539062 C 351.300781 46.59375 351.300781 53.644531 351.300781 60.695312 C 355.660156 60.695312 360.019531 60.695312 364.378906 60.695312 C 364.378906 61.367188 364.378906 62.039062 364.378906 62.710938 C 360.0625 62.550781 355.785156 62.71875 351.554688 63.214844 C 351.117188 68.359375 351.367188 73.398438 352.308594 78.324219 C 353.378906 80.484375 355.140625 81.488281 357.589844 81.347656 C 361.707031 80.878906 365.648438 79.871094 369.410156 78.324219 C 369.492188 78.992188 369.328125 79.578125 368.90625 80.089844 C 361.941406 85.53125 354.230469 86.875 345.769531 84.117188 C 343.730469 82.664062 342.390625 80.734375 341.746094 78.324219 C 341.746094 73.121094 341.746094 67.914062 341.746094 62.710938 C 339.902344 62.710938 338.058594 62.710938 336.214844 62.710938 C 336.214844 62.039062 336.214844 61.367188 336.214844 60.695312 C 337.832031 60.851562 339.339844 60.683594 340.742188 60.191406 C 341.242188 53.566406 341.410156 46.851562 341.242188 40.042969 C 340.441406 39.910156 339.769531 40.078125 339.230469 40.546875 C 335.125 41.136719 331.6875 42.984375 328.921875 46.089844 C 328.527344 47.730469 328.613281 49.324219 329.171875 50.875 C 331.011719 51.195312 332.773438 50.945312 334.453125 50.117188 C 335.316406 50.089844 335.984375 50.421875 336.464844 51.125 C 337.5625 55.652344 335.800781 57.832031 331.183594 57.675781 C 328.363281 57.644531 326.433594 56.300781 325.402344 53.644531 C 324.292969 49.34375 325.382812 45.734375 328.671875 42.816406 C 335.574219 38.414062 343.117188 36.652344 351.300781 37.527344 C 356.679688 37.53125 362.046875 37.78125 367.398438 38.28125 C 368.199219 39.917969 367.949219 41.347656 366.640625 42.5625 C 362.910156 40.726562 358.972656 39.886719 354.824219 40.042969 Z M 354.824219 40.042969 "/>
<path style=" stroke:none;fill-rule:evenodd;fill:rgb(73.72549%,42.745098%,15.686275%);fill-opacity:1;" d="M 175.777344 75.808594 C 176.277344 72.375 176.445312 68.851562 176.28125 65.230469 C 174.4375 65.230469 172.59375 65.230469 170.746094 65.230469 C 170.746094 64.558594 170.746094 63.886719 170.746094 63.214844 C 176.949219 63.214844 183.152344 63.214844 189.355469 63.214844 C 189.355469 63.886719 189.355469 64.558594 189.355469 65.230469 C 187.847656 65.230469 186.339844 65.230469 184.828125 65.230469 C 184.828125 71.105469 184.828125 76.984375 184.828125 82.859375 C 185.464844 93.109375 180.769531 99.070312 170.746094 100.742188 C 167.394531 101.078125 164.042969 101.078125 160.6875 100.742188 C 157.71875 100.089844 156.878906 98.324219 158.175781 95.453125 C 158.953125 94.972656 159.789062 94.804688 160.6875 94.949219 C 161.183594 96.878906 162.359375 98.304688 164.210938 99.230469 C 169.207031 99.875 172.808594 97.945312 175.023438 93.4375 C 175.660156 90.789062 175.914062 88.105469 175.777344 85.378906 C 158.234375 86.953125 149.519531 78.894531 149.625 61.199219 C 149.980469 48.5 156.351562 40.691406 168.734375 37.777344 C 173.234375 37.191406 177.59375 37.695312 181.8125 39.289062 C 185.929688 42.226562 186.433594 45.753906 183.320312 49.867188 C 181.421875 50.460938 179.832031 50.042969 178.542969 48.605469 C 178.195312 46.097656 177.441406 43.75 176.28125 41.554688 C 174.371094 40.585938 172.359375 40.335938 170.246094 40.800781 C 165.542969 44.511719 162.441406 49.296875 160.941406 55.15625 C 160.605469 59.6875 160.605469 64.222656 160.941406 68.753906 C 161.441406 72.105469 162.445312 75.296875 163.957031 78.324219 C 167.136719 82.132812 170.992188 83.140625 175.527344 81.347656 C 175.777344 79.507812 175.859375 77.660156 175.777344 75.808594 Z M 175.777344 75.808594 "/>
<path style=" stroke:none;fill-rule:evenodd;fill:rgb(64.313725%,64.313725%,59.607843%);fill-opacity:1;" d="M 421.210938 52.132812 C 419.980469 52.625 418.636719 52.792969 417.1875 52.636719 C 416.816406 49.628906 416.648438 46.605469 416.683594 43.570312 C 415.847656 43.570312 415.007812 43.570312 414.171875 43.570312 C 415.144531 42.734375 416.320312 42.398438 417.691406 42.5625 C 417.691406 45.753906 417.691406 48.941406 417.691406 52.132812 C 418.863281 52.132812 420.039062 52.132812 421.210938 52.132812 Z M 421.210938 52.132812 "/>
<path style=" stroke:none;fill-rule:evenodd;fill:rgb(2.745098%,2.745098%,2.352941%);fill-opacity:1;" d="M 414.171875 43.570312 C 415.007812 43.570312 415.847656 43.570312 416.683594 43.570312 C 416.648438 46.605469 416.816406 49.628906 417.1875 52.636719 C 418.636719 52.792969 419.980469 52.625 421.210938 52.132812 C 422.429688 52.289062 423.605469 52.121094 424.730469 51.628906 C 423.21875 50.695312 422.886719 49.433594 423.726562 47.851562 C 426.003906 47.109375 427.179688 47.949219 427.246094 50.371094 C 426.570312 53.644531 424.558594 55.070312 421.210938 54.652344 C 419.703125 54.652344 418.195312 54.652344 416.683594 54.652344 C 416.519531 60.113281 416.6875 65.488281 417.1875 70.769531 C 417.105469 73.964844 417.1875 77.15625 417.4375 80.339844 C 419.6875 81.3125 421.53125 80.8125 422.972656 78.828125 C 422.695312 82.300781 420.765625 84.402344 417.1875 85.125 C 412.597656 86.183594 409.410156 84.589844 407.632812 80.339844 C 407.632812 71.609375 407.632812 62.878906 407.632812 54.148438 C 406.457031 54.148438 405.285156 54.148438 404.109375 54.148438 C 404.109375 53.476562 404.109375 52.804688 404.109375 52.132812 C 409.304688 51.464844 412.65625 48.609375 414.171875 43.570312 Z M 414.171875 43.570312 "/>
<path style=" stroke:none;fill-rule:evenodd;fill:rgb(93.333333%,80%,60.784314%);fill-opacity:1;" d="M 339.230469 40.546875 C 339.769531 40.078125 340.441406 39.910156 341.242188 40.042969 C 341.410156 46.851562 341.242188 53.566406 340.742188 60.191406 C 340.742188 53.644531 340.742188 47.097656 340.742188 40.546875 C 340.238281 40.546875 339.734375 40.546875 339.230469 40.546875 Z M 339.230469 40.546875 "/>
<path style=" stroke:none;fill-rule:evenodd;fill:rgb(3.137255%,3.137255%,2.352941%);fill-opacity:1;" d="M 196.398438 51.628906 C 201.402344 51.066406 204.335938 53.25 205.199219 58.179688 C 206.792969 55.910156 208.71875 53.980469 210.984375 52.386719 C 212.699219 51.933594 214.292969 52.1875 215.761719 53.140625 C 216.011719 55.316406 216.09375 57.5 216.011719 59.6875 C 212.046875 57.304688 208.441406 57.808594 205.199219 61.199219 C 204.796875 68.753906 204.460938 76.308594 204.191406 83.867188 C 203.738281 84.472656 203.152344 84.890625 202.433594 85.125 C 200.589844 85.460938 198.746094 85.460938 196.902344 85.125 C 196.480469 84.707031 196.0625 84.285156 195.644531 83.867188 C 195.59375 74.613281 195.257812 65.378906 194.636719 56.164062 C 193.558594 55.855469 192.46875 55.519531 191.367188 55.15625 C 193.066406 53.953125 194.742188 52.777344 196.398438 51.628906 Z M 196.398438 51.628906 "/>
<path style=" stroke:none;fill-rule:evenodd;fill:rgb(5.098039%,5.490196%,5.098039%);fill-opacity:1;" d="M 260.269531 51.628906 C 264.292969 51.292969 267.980469 52.21875 271.335938 54.398438 C 273.257812 56.734375 273.34375 59.167969 271.585938 61.703125 C 267.519531 64.203125 263.414062 66.636719 259.265625 69.007812 C 258.3125 69.550781 257.8125 70.390625 257.757812 71.527344 C 258.816406 78.859375 263.007812 81.882812 270.328125 80.59375 C 271.675781 80.089844 272.847656 79.332031 273.851562 78.324219 C 272.40625 82.011719 269.554688 84.277344 265.300781 85.125 C 254.96875 86.535156 248.847656 82.085938 246.941406 71.777344 C 246.847656 62.050781 251.292969 55.335938 260.269531 51.628906 Z M 260.269531 51.628906 "/>
<path style=" stroke:none;fill-rule:evenodd;fill:rgb(3.921569%,3.529412%,3.137255%);fill-opacity:1;" d="M 280.890625 51.628906 C 285.664062 50.953125 288.597656 52.96875 289.691406 57.675781 C 293.238281 51.816406 298.015625 50.558594 304.027344 53.894531 C 305.984375 56.289062 307.074219 59.058594 307.296875 62.207031 C 308.335938 69.402344 307.328125 76.285156 304.277344 82.859375 C 301.785156 87.59375 297.84375 89.945312 292.457031 89.910156 C 292.457031 89.40625 292.457031 88.902344 292.457031 88.398438 C 293.667969 88.453125 294.589844 87.949219 295.226562 86.890625 C 297.292969 81.726562 298.21875 76.355469 297.992188 70.769531 C 298.085938 66.847656 297.667969 62.988281 296.734375 59.183594 C 294.011719 56.28125 291.667969 56.617188 289.691406 60.191406 C 289.492188 68.265625 289.074219 76.324219 288.433594 84.371094 C 286.183594 85.363281 283.839844 85.613281 281.394531 85.125 C 280.976562 84.707031 280.554688 84.285156 280.136719 83.867188 C 279.726562 74.636719 279.390625 65.398438 279.132812 56.164062 C 278.050781 55.855469 276.960938 55.519531 275.863281 55.15625 C 277.558594 53.953125 279.234375 52.777344 280.890625 51.628906 Z M 280.890625 51.628906 "/>
<path style=" stroke:none;fill-rule:evenodd;fill:rgb(4.705882%,5.490196%,4.705882%);fill-opacity:1;" d="M 381.980469 51.628906 C 387.597656 51.082031 392.542969 52.59375 396.820312 56.164062 C 397.253906 56.960938 397.585938 57.800781 397.824219 58.679688 C 398.410156 66.226562 398.664062 73.78125 398.578125 81.347656 C 399.765625 81.265625 400.9375 81.351562 402.097656 81.601562 C 397.441406 86.644531 392.996094 86.558594 388.773438 81.347656 C 385.164062 85.128906 380.890625 86.21875 375.945312 84.621094 C 371.515625 80.816406 370.761719 76.367188 373.683594 71.273438 C 377.230469 68.066406 381.339844 65.800781 386.003906 64.472656 C 389.492188 61.039062 389.324219 57.851562 385.503906 54.902344 C 383.289062 54.410156 381.195312 54.664062 379.214844 55.660156 C 378.554688 57.492188 379.140625 58.667969 380.976562 59.183594 C 381.820312 62.949219 380.308594 64.210938 376.449219 62.964844 C 375.730469 62.730469 375.144531 62.308594 374.6875 61.703125 C 373.746094 58.425781 374.667969 55.820312 377.457031 53.894531 C 379.011719 53.117188 380.519531 52.363281 381.980469 51.628906 Z M 381.980469 51.628906 "/>
<path style=" stroke:none;fill-rule:evenodd;fill:rgb(4.313725%,4.705882%,3.921569%);fill-opacity:1;" d="M 434.289062 51.628906 C 438.214844 51.5 441.816406 52.507812 445.101562 54.652344 C 447.71875 59.503906 446.296875 61.515625 440.824219 60.695312 C 440.675781 59.636719 440.84375 58.628906 441.328125 57.675781 C 442.640625 56.800781 442.640625 55.875 441.328125 54.902344 C 435.960938 54.242188 434.535156 56.339844 437.054688 61.199219 C 440.96875 64.613281 444.324219 68.476562 447.113281 72.785156 C 448.652344 81.136719 445.214844 85.332031 436.800781 85.378906 C 432.210938 85.515625 428.691406 83.667969 426.242188 79.835938 C 427.300781 79.734375 428.308594 80.152344 429.257812 81.097656 C 431.617188 82.070312 433.964844 82.070312 436.300781 81.097656 C 437.960938 79.183594 438.210938 77.085938 437.054688 74.800781 C 434.539062 71.945312 432.023438 69.089844 429.507812 66.238281 C 427.28125 63.105469 426.777344 59.746094 428 56.164062 C 429.820312 54.207031 431.914062 52.699219 434.289062 51.628906 Z M 434.289062 51.628906 "/>
<path style=" stroke:none;fill-rule:evenodd;fill:rgb(4.705882%,5.490196%,4.705882%);fill-opacity:1;" d="M 230.597656 51.628906 C 234.621094 51.292969 238.308594 52.21875 241.660156 54.398438 C 243.5625 56.769531 243.644531 59.203125 241.914062 61.703125 C 237.847656 64.203125 233.742188 66.636719 229.589844 69.007812 C 228.640625 69.550781 228.136719 70.390625 228.082031 71.527344 C 229.140625 78.859375 233.332031 81.882812 240.65625 80.59375 C 242 80.089844 243.175781 79.332031 244.175781 78.324219 C 242.730469 82.011719 239.882812 84.277344 235.625 85.125 C 225.523438 86.597656 219.40625 82.316406 217.269531 72.28125 C 216.933594 62.292969 221.378906 55.410156 230.597656 51.628906 Z M 230.597656 51.628906 "/>
<path style=" stroke:none;fill-rule:evenodd;fill:rgb(60.392157%,60.392157%,57.647059%);fill-opacity:1;" d="M 404.109375 52.132812 C 404.109375 52.804688 404.109375 53.476562 404.109375 54.148438 C 405.285156 54.148438 406.457031 54.148438 407.632812 54.148438 C 407.632812 62.878906 407.632812 71.609375 407.632812 80.339844 C 407.128906 71.867188 406.964844 63.304688 407.128906 54.652344 C 405.957031 54.652344 404.78125 54.652344 403.609375 54.652344 C 403.464844 53.6875 403.632812 52.847656 404.109375 52.132812 Z M 404.109375 52.132812 "/>
<path style=" stroke:none;fill-rule:evenodd;fill:rgb(49.019608%,48.235294%,43.921569%);fill-opacity:1;" d="M 421.210938 54.652344 C 419.980469 55.140625 418.636719 55.308594 417.1875 55.15625 C 417.1875 60.359375 417.1875 65.566406 417.1875 70.769531 C 416.6875 65.488281 416.519531 60.113281 416.683594 54.652344 C 418.195312 54.652344 419.703125 54.652344 421.210938 54.652344 Z M 421.210938 54.652344 "/>
<path style=" stroke:none;fill-rule:evenodd;fill:rgb(93.72549%,94.117647%,94.117647%);fill-opacity:1;" d="M 230.09375 55.15625 C 231.839844 54.839844 233.265625 55.34375 234.371094 56.667969 C 235.140625 58.789062 235.308594 60.96875 234.871094 63.214844 C 232.675781 65.027344 230.246094 66.371094 227.578125 67.246094 C 226.960938 62.851562 227.796875 58.824219 230.09375 55.15625 Z M 230.09375 55.15625 "/>
<path style=" stroke:none;fill-rule:evenodd;fill:rgb(94.117647%,94.117647%,94.117647%);fill-opacity:1;" d="M 259.769531 55.15625 C 261.511719 54.839844 262.9375 55.34375 264.042969 56.667969 C 264.8125 58.789062 264.980469 60.96875 264.546875 63.214844 C 262.347656 65.027344 259.917969 66.371094 257.253906 67.246094 C 256.632812 62.851562 257.472656 58.824219 259.769531 55.15625 Z M 259.769531 55.15625 "/>
<path style=" stroke:none;fill-rule:evenodd;fill:rgb(61.176471%,54.509804%,44.705882%);fill-opacity:1;" d="M 189.859375 65.230469 C 189.691406 65.230469 189.523438 65.230469 189.355469 65.230469 C 189.355469 64.558594 189.355469 63.886719 189.355469 63.214844 C 183.152344 63.214844 176.949219 63.214844 170.746094 63.214844 C 170.746094 63.886719 170.746094 64.558594 170.746094 65.230469 C 170.269531 64.515625 170.101562 63.675781 170.246094 62.710938 C 176.945312 62.367188 183.652344 62.203125 190.363281 62.207031 C 190.355469 63.246094 190.1875 64.253906 189.859375 65.230469 Z M 189.859375 65.230469 "/>
<path style=" stroke:none;fill-rule:evenodd;fill:rgb(88.235294%,71.372549%,49.411765%);fill-opacity:1;" d="M 336.214844 60.695312 C 336.214844 61.367188 336.214844 62.039062 336.214844 62.710938 C 338.058594 62.710938 339.902344 62.710938 341.746094 62.710938 C 341.746094 67.914062 341.746094 73.121094 341.746094 78.324219 C 341.339844 77.421875 341.089844 76.414062 340.992188 75.304688 C 340.742188 71.277344 340.65625 67.246094 340.742188 63.214844 C 339.066406 63.214844 337.386719 63.214844 335.710938 63.214844 C 335.570312 62.25 335.734375 61.410156 336.214844 60.695312 Z M 336.214844 60.695312 "/>
<path style=" stroke:none;fill-rule:evenodd;fill:rgb(92.156863%,84.705882%,71.764706%);fill-opacity:1;" d="M 354.824219 40.042969 C 353.816406 40.042969 352.8125 40.042969 351.804688 40.042969 C 351.804688 46.761719 351.804688 53.476562 351.804688 60.191406 C 356.164062 60.191406 360.523438 60.191406 364.882812 60.191406 C 364.882812 61.199219 364.882812 62.207031 364.882812 63.214844 C 360.699219 63.527344 356.507812 63.695312 352.308594 63.71875 C 352.308594 68.585938 352.308594 73.457031 352.308594 78.324219 C 351.367188 73.398438 351.117188 68.359375 351.554688 63.214844 C 355.785156 62.71875 360.0625 62.550781 364.378906 62.710938 C 364.378906 62.039062 364.378906 61.367188 364.378906 60.695312 C 360.019531 60.695312 355.660156 60.695312 351.300781 60.695312 C 351.300781 53.644531 351.300781 46.59375 351.300781 39.539062 C 352.589844 39.390625 353.761719 39.558594 354.824219 40.042969 Z M 354.824219 40.042969 "/>
<path style=" stroke:none;fill-rule:evenodd;fill:rgb(83.137255%,72.941176%,57.254902%);fill-opacity:1;" d="M 189.355469 65.230469 C 189.523438 65.230469 189.691406 65.230469 189.859375 65.230469 C 188.457031 65.722656 186.949219 65.890625 185.332031 65.734375 C 185.496094 71.53125 185.332031 77.242188 184.828125 82.859375 C 184.828125 76.984375 184.828125 71.105469 184.828125 65.230469 C 186.339844 65.230469 187.847656 65.230469 189.355469 65.230469 Z M 189.355469 65.230469 "/>
<path style=" stroke:none;fill-rule:evenodd;fill:rgb(92.941176%,93.72549%,93.333333%);fill-opacity:1;" d="M 384.496094 66.742188 C 385.890625 66.601562 387.148438 66.9375 388.269531 67.75 C 388.605469 71.273438 388.605469 74.800781 388.269531 78.324219 C 386.726562 80.929688 384.714844 81.433594 382.234375 79.835938 C 381.25 76.492188 381.25 73.132812 382.234375 69.761719 C 382.902344 68.675781 383.65625 67.667969 384.496094 66.742188 Z M 384.496094 66.742188 "/>
<path style=" stroke:none;fill-rule:evenodd;fill:rgb(87.058824%,70.588235%,51.372549%);fill-opacity:1;" d="M 170.746094 65.230469 C 172.59375 65.230469 174.4375 65.230469 176.28125 65.230469 C 176.445312 68.851562 176.277344 72.375 175.777344 75.808594 C 175.777344 72.449219 175.777344 69.089844 175.777344 65.734375 C 173.996094 65.890625 172.320312 65.722656 170.746094 65.230469 Z M 170.746094 65.230469 "/>
<path style=" stroke:none;fill-rule:evenodd;fill:rgb(7.843137%,8.627451%,7.843137%);fill-opacity:1;" d="M 92.792969 128.191406 C 92.792969 124.332031 92.792969 120.46875 92.792969 116.605469 C 91.667969 116.457031 90.664062 116.628906 89.773438 117.109375 C 87.589844 117.289062 86.75 118.464844 87.261719 120.636719 C 88.265625 120.636719 89.273438 120.636719 90.277344 120.636719 C 90.457031 123.511719 89.113281 124.433594 86.253906 123.40625 C 85.246094 121.976562 84.996094 120.382812 85.5 118.621094 C 90.671875 114.289062 96.453125 113.367188 102.851562 115.851562 C 106.664062 118.453125 106.832031 121.308594 103.355469 124.414062 C 108.824219 127.628906 109.328125 131.492188 104.863281 136 C 101.214844 136.785156 97.527344 136.953125 93.796875 136.503906 C 93.546875 136.25 93.296875 136 93.042969 135.75 C 92.792969 133.234375 92.707031 130.714844 92.792969 128.191406 Z M 92.792969 128.191406 "/>
<path style=" stroke:none;fill-rule:evenodd;fill:rgb(8.235294%,8.235294%,7.843137%);fill-opacity:1;" d="M 300.003906 114.089844 C 305.941406 113.410156 309.714844 115.925781 311.320312 121.644531 C 312 126.171875 311.496094 130.535156 309.808594 134.742188 C 307.140625 136.863281 304.207031 137.285156 301.007812 136 C 298.234375 132.308594 297.816406 128.363281 299.75 124.164062 C 301.667969 121.855469 304.015625 121.183594 306.792969 122.148438 C 306.382812 117.195312 303.785156 115.097656 298.996094 115.851562 C 299.664062 115.441406 299.996094 114.851562 300.003906 114.089844 Z M 300.003906 114.089844 "/>
<path style=" stroke:none;fill-rule:evenodd;fill:rgb(5.098039%,5.882353%,4.705882%);fill-opacity:1;" d="M 466.980469 132.222656 C 466.980469 126.679688 466.980469 121.140625 466.980469 115.601562 C 466.308594 115.601562 465.636719 115.601562 464.96875 115.601562 C 466.554688 113.746094 468.398438 113.578125 470.5 115.097656 C 471 122.308594 471.167969 129.527344 471.003906 136.753906 C 469.660156 136.753906 468.320312 136.753906 466.980469 136.753906 C 466.980469 135.246094 466.980469 133.734375 466.980469 132.222656 Z M 466.980469 132.222656 "/>
<path style=" stroke:none;fill-rule:evenodd;fill:rgb(50.588235%,50.980392%,50.980392%);fill-opacity:1;" d="M 99.832031 116.605469 C 99.164062 116.605469 98.492188 116.605469 97.820312 116.605469 C 97.820312 120.636719 97.820312 124.667969 97.820312 128.695312 C 97.320312 124.589844 97.15625 120.394531 97.320312 116.105469 C 98.28125 115.960938 99.121094 116.128906 99.832031 116.605469 Z M 99.832031 116.605469 "/>
<path style=" stroke:none;fill-rule:evenodd;fill:rgb(51.764706%,52.156863%,47.058824%);fill-opacity:1;" d="M 89.773438 117.109375 C 90.664062 116.628906 91.667969 116.457031 92.792969 116.605469 C 92.792969 120.46875 92.792969 124.332031 92.792969 128.191406 C 92.292969 124.59375 92.125 120.898438 92.289062 117.109375 C 91.449219 117.109375 90.613281 117.109375 89.773438 117.109375 Z M 89.773438 117.109375 "/>
<path style=" stroke:none;fill-rule:evenodd;fill:rgb(9.019608%,9.411765%,8.627451%);fill-opacity:1;" d="M 122.96875 116.605469 C 125.914062 115.890625 126.921875 116.898438 125.984375 119.628906 C 122.78125 120.785156 121.777344 119.777344 122.96875 116.605469 Z M 122.96875 116.605469 "/>
<path style=" stroke:none;fill-rule:evenodd;fill:rgb(9.019608%,9.411765%,8.627451%);fill-opacity:1;" d="M 163.203125 116.605469 C 166.148438 115.890625 167.15625 116.898438 166.222656 119.628906 C 163.015625 120.785156 162.011719 119.777344 163.203125 116.605469 Z M 163.203125 116.605469 "/>
<path style=" stroke:none;fill-rule:evenodd;fill:rgb(4.705882%,5.098039%,4.313725%);fill-opacity:1;" d="M 356.332031 119.125 C 356.332031 120.132812 356.332031 121.140625 356.332031 122.148438 C 357.296875 122.292969 358.132812 122.125 358.847656 121.644531 C 359.21875 121.710938 359.554688 121.625 359.851562 121.394531 C 359.234375 120.796875 359.234375 120.210938 359.851562 119.628906 C 360.9375 120.367188 361.105469 121.292969 360.355469 122.398438 C 359.878906 122.644531 359.375 122.726562 358.847656 122.652344 C 358.007812 122.652344 357.171875 122.652344 356.332031 122.652344 C 356.332031 126.847656 356.332031 131.046875 356.332031 135.246094 C 356.980469 135.363281 357.484375 135.195312 357.839844 134.742188 C 359.699219 134.269531 359.867188 134.855469 358.34375 136.503906 C 352.632812 137.75 350.621094 135.480469 352.308594 129.703125 C 352.613281 127.125 352.277344 124.773438 351.300781 122.652344 C 351.082031 122.683594 350.914062 122.601562 350.800781 122.398438 C 353.0625 121.476562 354.65625 119.882812 355.578125 117.613281 C 356.101562 117.988281 356.351562 118.492188 356.332031 119.125 Z M 356.332031 119.125 "/>
<path style=" stroke:none;fill-rule:evenodd;fill:rgb(4.705882%,5.098039%,4.313725%);fill-opacity:1;" d="M 494.136719 119.125 C 494.136719 120.132812 494.136719 121.140625 494.136719 122.148438 C 495.101562 122.292969 495.9375 122.125 496.652344 121.644531 C 497.023438 121.710938 497.359375 121.625 497.65625 121.394531 C 497.039062 120.796875 497.039062 120.210938 497.65625 119.628906 C 498.742188 120.367188 498.910156 121.292969 498.160156 122.398438 C 497.683594 122.644531 497.179688 122.726562 496.652344 122.652344 C 495.8125 122.652344 494.976562 122.652344 494.136719 122.652344 C 494.136719 126.847656 494.136719 131.046875 494.136719 135.246094 C 494.785156 135.363281 495.289062 135.195312 495.644531 134.742188 C 497.503906 134.269531 497.671875 134.855469 496.148438 136.503906 C 490.4375 137.75 488.425781 135.480469 490.113281 129.703125 C 490.417969 127.125 490.082031 124.773438 489.109375 122.652344 C 488.886719 122.683594 488.71875 122.601562 488.605469 122.398438 C 490.867188 121.476562 492.460938 119.882812 493.382812 117.613281 C 493.90625 117.988281 494.15625 118.492188 494.136719 119.125 Z M 494.136719 119.125 "/>
<path style=" stroke:none;fill-rule:evenodd;fill:rgb(4.705882%,5.490196%,4.313725%);fill-opacity:1;" d="M 214.503906 118.621094 C 214.503906 119.796875 214.503906 120.972656 214.503906 122.148438 C 215.464844 122.292969 216.304688 122.125 217.019531 121.644531 C 217.390625 121.710938 217.726562 121.625 218.023438 121.394531 C 217.601562 120.882812 217.433594 120.296875 217.519531 119.628906 C 218.171875 119.511719 218.671875 119.679688 219.03125 120.132812 C 219.03125 120.804688 219.03125 121.476562 219.03125 122.148438 C 218.421875 122.519531 217.75 122.6875 217.019531 122.652344 C 216.179688 122.652344 215.339844 122.652344 214.503906 122.652344 C 214.503906 126.847656 214.503906 131.046875 214.503906 135.246094 C 215.152344 135.363281 215.65625 135.195312 216.011719 134.742188 C 217.871094 134.269531 218.039062 134.855469 216.515625 136.503906 C 211.574219 138.019531 209.5625 136.257812 210.480469 131.214844 C 210.789062 128.144531 210.453125 125.289062 209.472656 122.652344 C 209.253906 122.683594 209.085938 122.601562 208.972656 122.398438 C 211.207031 121.335938 212.96875 119.738281 214.25 117.613281 C 214.484375 117.914062 214.570312 118.25 214.503906 118.621094 Z M 214.503906 118.621094 "/>
<path style=" stroke:none;fill-rule:evenodd;fill:rgb(45.882353%,46.666667%,43.529412%);fill-opacity:1;" d="M 224.058594 115.097656 C 224.851562 117.65625 225.1875 120.34375 225.066406 123.15625 C 224.222656 120.601562 223.886719 117.917969 224.058594 115.097656 Z M 224.058594 115.097656 "/>
<path style=" stroke:none;fill-rule:evenodd;fill:rgb(54.901961%,55.686275%,51.372549%);fill-opacity:1;" d="M 464.96875 115.601562 C 465.636719 115.601562 466.308594 115.601562 466.980469 115.601562 C 466.980469 121.140625 466.980469 126.679688 466.980469 132.222656 C 466.480469 126.941406 466.3125 121.566406 466.476562 116.105469 C 465.828125 116.222656 465.324219 116.054688 464.96875 115.601562 Z M 464.96875 115.601562 "/>
<path style=" stroke:none;fill-rule:evenodd;fill:rgb(50.588235%,50.588235%,47.058824%);fill-opacity:1;" d="M 214.503906 118.621094 C 214.988281 119.511719 215.15625 120.519531 215.007812 121.644531 C 215.675781 121.644531 216.347656 121.644531 217.019531 121.644531 C 216.304688 122.125 215.464844 122.292969 214.503906 122.148438 C 214.503906 120.972656 214.503906 119.796875 214.503906 118.621094 Z M 214.503906 118.621094 "/>
<path style=" stroke:none;fill-rule:evenodd;fill:rgb(48.627451%,48.235294%,44.705882%);fill-opacity:1;" d="M 356.332031 119.125 C 356.808594 119.839844 356.976562 120.679688 356.835938 121.644531 C 357.503906 121.644531 358.175781 121.644531 358.847656 121.644531 C 358.132812 122.125 357.296875 122.292969 356.332031 122.148438 C 356.332031 121.140625 356.332031 120.132812 356.332031 119.125 Z M 356.332031 119.125 "/>
<path style=" stroke:none;fill-rule:evenodd;fill:rgb(48.235294%,48.627451%,44.705882%);fill-opacity:1;" d="M 494.136719 119.125 C 494.617188 119.839844 494.78125 120.679688 494.640625 121.644531 C 495.3125 121.644531 495.980469 121.644531 496.652344 121.644531 C 495.9375 122.125 495.101562 122.292969 494.136719 122.148438 C 494.136719 121.140625 494.136719 120.132812 494.136719 119.125 Z M 494.136719 119.125 "/>
<path style=" stroke:none;fill-rule:evenodd;fill:rgb(4.705882%,5.098039%,3.921569%);fill-opacity:1;" d="M 119.949219 122.148438 C 119.949219 123.15625 119.949219 124.164062 119.949219 125.171875 C 118.402344 124.378906 116.976562 124.546875 115.675781 125.675781 C 115.203125 129.355469 114.949219 133.046875 114.921875 136.753906 C 113.582031 136.753906 112.238281 136.753906 110.898438 136.753906 C 110.898438 135.246094 110.898438 133.734375 110.898438 132.222656 C 110.898438 129.199219 110.898438 126.179688 110.898438 123.15625 C 110.226562 123.15625 109.558594 123.15625 108.886719 123.15625 C 109.097656 122.792969 109.429688 122.539062 109.890625 122.398438 C 111.402344 122.0625 112.910156 122.0625 114.417969 122.398438 C 114.777344 123.03125 115.195312 123.621094 115.675781 124.164062 C 116.628906 122.480469 118.054688 121.804688 119.949219 122.148438 Z M 119.949219 122.148438 "/>
<path style=" stroke:none;fill-rule:evenodd;fill:rgb(1.176471%,1.568627%,0.784314%);fill-opacity:1;" d="M 122.464844 125.171875 C 122.53125 124.269531 122.367188 123.429688 121.960938 122.652344 C 123.402344 122.003906 124.914062 122.003906 126.488281 122.652344 C 126.992188 127.339844 127.160156 132.042969 126.992188 136.753906 C 125.652344 136.753906 124.308594 136.753906 122.96875 136.753906 C 123.066406 132.875 122.898438 129.015625 122.464844 125.171875 Z M 122.464844 125.171875 "/>
<path style=" stroke:none;fill-rule:evenodd;fill:rgb(6.666667%,7.058824%,6.27451%);fill-opacity:1;" d="M 131.519531 130.710938 C 131.519531 128.191406 131.519531 125.675781 131.519531 123.15625 C 130.847656 123.15625 130.175781 123.15625 129.507812 123.15625 C 129.5625 122.84375 129.730469 122.59375 130.007812 122.398438 C 131.6875 122.0625 133.363281 122.0625 135.039062 122.398438 C 135.398438 123.03125 135.816406 123.621094 136.296875 124.164062 C 137.78125 122.261719 139.710938 121.671875 142.082031 122.398438 C 142.859375 123.011719 143.445312 123.765625 143.839844 124.667969 C 144.609375 129.117188 143.9375 133.3125 141.828125 137.257812 C 140.789062 138.585938 139.53125 138.921875 138.058594 138.265625 C 138.714844 137.554688 139.132812 136.714844 139.3125 135.75 C 139.648438 132.558594 139.648438 129.367188 139.3125 126.179688 C 138.878906 124.015625 137.871094 123.679688 136.296875 125.171875 C 135.800781 129.019531 135.550781 132.878906 135.542969 136.753906 C 134.199219 136.753906 132.859375 136.753906 131.519531 136.753906 C 131.519531 134.742188 131.519531 132.726562 131.519531 130.710938 Z M 131.519531 130.710938 "/>
<path style=" stroke:none;fill-rule:evenodd;fill:rgb(1.960784%,1.960784%,1.176471%);fill-opacity:1;" d="M 163.203125 131.214844 C 163.203125 128.527344 163.203125 125.84375 163.203125 123.15625 C 162.53125 123.15625 161.863281 123.15625 161.191406 123.15625 C 161.246094 122.84375 161.414062 122.59375 161.695312 122.398438 C 163.402344 122.019531 165.078125 122.105469 166.722656 122.652344 C 167.226562 127.339844 167.394531 132.042969 167.226562 136.753906 C 165.886719 136.753906 164.546875 136.753906 163.203125 136.753906 C 163.203125 134.910156 163.203125 133.0625 163.203125 131.214844 Z M 163.203125 131.214844 "/>
<path style=" stroke:none;fill-rule:evenodd;fill:rgb(6.666667%,7.058824%,6.27451%);fill-opacity:1;" d="M 171.753906 130.710938 C 171.753906 128.191406 171.753906 125.675781 171.753906 123.15625 C 171.082031 123.15625 170.414062 123.15625 169.742188 123.15625 C 169.796875 122.84375 169.964844 122.59375 170.246094 122.398438 C 171.921875 122.0625 173.597656 122.0625 175.273438 122.398438 C 175.632812 123.03125 176.050781 123.621094 176.53125 124.164062 C 178.019531 122.261719 179.945312 121.671875 182.316406 122.398438 C 183.09375 123.011719 183.679688 123.765625 184.074219 124.667969 C 184.84375 129.117188 184.171875 133.3125 182.0625 137.257812 C 181.023438 138.585938 179.765625 138.921875 178.292969 138.265625 C 178.949219 137.554688 179.367188 136.714844 179.550781 135.75 C 179.882812 132.558594 179.882812 129.367188 179.550781 126.179688 C 179.113281 124.015625 178.105469 123.679688 176.53125 125.171875 C 176.035156 129.019531 175.785156 132.878906 175.777344 136.753906 C 174.4375 136.753906 173.09375 136.753906 171.753906 136.753906 C 171.753906 134.742188 171.753906 132.726562 171.753906 130.710938 Z M 171.753906 130.710938 "/>
<path style=" stroke:none;fill-rule:evenodd;fill:rgb(6.666667%,7.058824%,6.27451%);fill-opacity:1;" d="M 329.171875 132.222656 C 329.171875 129.199219 329.171875 126.179688 329.171875 123.15625 C 328.503906 123.15625 327.832031 123.15625 327.160156 123.15625 C 327.21875 122.84375 327.386719 122.59375 327.664062 122.398438 C 329.339844 122.0625 331.019531 122.0625 332.695312 122.398438 C 333.050781 123.03125 333.46875 123.621094 333.953125 124.164062 C 335.4375 122.261719 337.367188 121.671875 339.734375 122.398438 C 340.515625 123.011719 341.101562 123.765625 341.496094 124.667969 C 342.261719 129.117188 341.59375 133.3125 339.484375 137.257812 C 338.445312 138.585938 337.1875 138.921875 335.710938 138.265625 C 336.367188 137.554688 336.789062 136.714844 336.96875 135.75 C 337.304688 132.558594 337.304688 129.367188 336.96875 126.179688 C 336.53125 124.015625 335.527344 123.679688 333.953125 125.171875 C 333.457031 129.019531 333.203125 132.878906 333.195312 136.753906 C 331.855469 136.753906 330.515625 136.753906 329.171875 136.753906 C 329.171875 135.246094 329.171875 133.734375 329.171875 132.222656 Z M 329.171875 132.222656 "/>
<path style=" stroke:none;fill-rule:evenodd;fill:rgb(8.235294%,8.627451%,8.235294%);fill-opacity:1;" d="M 363.875 122.148438 C 372.5625 121.191406 375.664062 124.886719 373.179688 133.230469 C 370.042969 137.925781 366.355469 138.429688 362.117188 134.742188 C 359.367188 130.058594 359.957031 125.859375 363.875 122.148438 Z M 363.875 122.148438 "/>
<path style=" stroke:none;fill-rule:evenodd;fill:rgb(8.627451%,9.019608%,8.235294%);fill-opacity:1;" d="M 401.09375 122.148438 C 409.78125 121.191406 412.882812 124.886719 410.398438 133.230469 C 407.570312 137.6875 404.050781 138.359375 399.835938 135.246094 C 396.527344 130.515625 396.949219 126.152344 401.09375 122.148438 Z M 401.09375 122.148438 "/>
<path style=" stroke:none;fill-rule:evenodd;fill:rgb(8.235294%,8.627451%,7.843137%);fill-opacity:1;" d="M 224.058594 115.097656 C 223.886719 117.917969 224.222656 120.601562 225.066406 123.15625 C 225.03125 123.375 225.117188 123.542969 225.316406 123.660156 C 226.996094 122.238281 228.921875 121.820312 231.101562 122.398438 C 233.695312 126.925781 233.78125 131.542969 231.351562 136.25 C 230 138.0625 228.238281 138.984375 226.070312 139.023438 C 226.851562 138.410156 227.4375 137.65625 227.832031 136.753906 C 228.167969 132.726562 228.167969 128.695312 227.832031 124.667969 C 227.132812 124.136719 226.378906 124.050781 225.566406 124.414062 C 224.714844 128.460938 224.378906 132.574219 224.5625 136.753906 C 223.109375 136.910156 221.769531 136.742188 220.539062 136.25 C 220.621094 130.875 220.539062 125.503906 220.289062 120.132812 C 220.261719 118.292969 219.84375 116.613281 219.03125 115.097656 C 220.757812 114.449219 222.433594 114.449219 224.058594 115.097656 Z M 224.058594 115.097656 "/>
<path style=" stroke:none;fill-rule:evenodd;fill:rgb(9.019608%,9.411765%,8.235294%);fill-opacity:1;" d="M 267.816406 118.621094 C 269.316406 118.449219 269.988281 119.121094 269.828125 120.636719 C 269.566406 121.917969 269.230469 123.175781 268.820312 124.414062 C 270.300781 131.414062 267.453125 134.519531 260.269531 133.734375 C 260.199219 134.550781 260.535156 135.136719 261.277344 135.496094 C 263.996094 135.804688 266.675781 136.308594 269.324219 137.007812 C 271.214844 140.285156 270.375 142.46875 266.808594 143.554688 C 263.792969 143.890625 260.773438 143.890625 257.757812 143.554688 C 257.054688 143.074219 256.71875 142.402344 256.75 141.539062 C 257.023438 140.425781 257.527344 139.417969 258.257812 138.519531 C 257.484375 136.558594 257.652344 134.714844 258.761719 132.976562 C 255.195312 123.871094 258.210938 120.429688 267.816406 122.652344 C 267.585938 121.238281 267.585938 119.894531 267.816406 118.621094 Z M 267.816406 118.621094 "/>
<path style=" stroke:none;fill-rule:evenodd;fill:rgb(6.666667%,7.058824%,6.27451%);fill-opacity:1;" d="M 414.671875 132.222656 C 414.671875 129.367188 414.671875 126.515625 414.671875 123.660156 C 414.171875 123.660156 413.667969 123.660156 413.164062 123.660156 C 413.390625 123.175781 413.726562 122.757812 414.171875 122.398438 C 415.542969 122.035156 416.882812 122.117188 418.195312 122.652344 C 418.8125 126.660156 419.144531 130.6875 419.199219 134.742188 C 420.316406 134.902344 421.238281 134.566406 421.964844 133.734375 C 422.050781 132.054688 422.132812 130.375 422.21875 128.695312 C 419.539062 123.652344 421.046875 121.46875 426.742188 122.148438 C 426.785156 126.519531 426.953125 130.886719 427.246094 135.246094 C 427.777344 135.167969 428.277344 135.253906 428.753906 135.496094 C 426.433594 137.246094 424.253906 137.160156 422.21875 135.246094 C 419.855469 136.964844 417.425781 137.132812 414.925781 135.75 C 414.675781 134.585938 414.589844 133.410156 414.671875 132.222656 Z M 414.671875 132.222656 "/>
<path style=" stroke:none;fill-rule:evenodd;fill:rgb(4.705882%,5.098039%,4.313725%);fill-opacity:1;" d="M 431.269531 132.726562 C 431.269531 129.535156 431.269531 126.34375 431.269531 123.15625 C 430.597656 123.15625 429.929688 123.15625 429.257812 123.15625 C 429.3125 122.84375 429.480469 122.59375 429.761719 122.398438 C 431.4375 122.0625 433.113281 122.0625 434.789062 122.398438 C 435.148438 123.03125 435.566406 123.621094 436.046875 124.164062 C 437.175781 122.417969 438.765625 121.746094 440.824219 122.148438 C 441.355469 124.640625 440.519531 125.480469 438.3125 124.667969 C 437.367188 124.609375 436.613281 124.945312 436.046875 125.675781 C 435.628906 129.359375 435.378906 133.050781 435.292969 136.753906 C 433.953125 136.753906 432.609375 136.753906 431.269531 136.753906 C 431.269531 135.414062 431.269531 134.070312 431.269531 132.726562 Z M 431.269531 132.726562 "/>
<path style=" stroke:none;fill-rule:evenodd;fill:rgb(8.627451%,9.019608%,8.235294%);fill-opacity:1;" d="M 476.03125 122.148438 C 478.382812 122.066406 480.730469 122.148438 483.074219 122.398438 C 483.792969 122.632812 484.378906 123.054688 484.832031 123.660156 C 485.523438 127.738281 486.277344 131.769531 487.097656 135.75 C 485.042969 137.03125 482.945312 137.03125 480.808594 135.75 C 475.386719 138.554688 473.207031 136.875 474.269531 130.710938 C 475.988281 129.21875 477.917969 128.042969 480.054688 127.183594 C 482.019531 123.769531 481.011719 122.425781 477.039062 123.15625 C 477.285156 124.316406 477.453125 125.492188 477.539062 126.679688 C 476.703125 126.679688 475.863281 126.679688 475.027344 126.679688 C 474.808594 125 475.140625 123.488281 476.03125 122.148438 Z M 476.03125 122.148438 "/>
<path style=" stroke:none;fill-rule:evenodd;fill:rgb(50.980392%,50.980392%,46.666667%);fill-opacity:1;" d="M 209.472656 122.652344 C 210.453125 125.289062 210.789062 128.144531 210.480469 131.214844 C 210.125 128.410156 209.789062 125.558594 209.472656 122.652344 Z M 209.472656 122.652344 "/>
<path style=" stroke:none;fill-rule:evenodd;fill:rgb(7.843137%,8.235294%,7.45098%);fill-opacity:1;" d="M 239.648438 122.148438 C 241.835938 122.066406 244.015625 122.148438 246.1875 122.398438 C 247.140625 123.3125 247.394531 124.402344 246.941406 125.675781 C 244.4375 127.265625 242.171875 129.113281 240.152344 131.214844 C 241.253906 134.664062 243.519531 135.671875 246.941406 134.238281 C 246.988281 135.378906 246.402344 136.136719 245.183594 136.503906 C 236.109375 137.175781 233.34375 133.230469 236.882812 124.667969 C 237.753906 123.707031 238.675781 122.867188 239.648438 122.148438 Z M 239.648438 122.148438 "/>
<path style=" stroke:none;fill-rule:evenodd;fill:rgb(49.019608%,49.019608%,43.921569%);fill-opacity:1;" d="M 351.300781 122.652344 C 352.277344 124.773438 352.613281 127.125 352.308594 129.703125 C 351.949219 127.40625 351.613281 125.054688 351.300781 122.652344 Z M 351.300781 122.652344 "/>
<path style=" stroke:none;fill-rule:evenodd;fill:rgb(7.058824%,7.45098%,7.058824%);fill-opacity:1;" d="M 450.382812 136.25 C 450.382812 131.886719 450.382812 127.519531 450.382812 123.15625 C 449.710938 123.15625 449.039062 123.15625 448.371094 123.15625 C 448.820312 122.039062 449.65625 121.535156 450.882812 121.644531 C 452.324219 121.863281 453.667969 122.367188 454.90625 123.15625 C 458.910156 121.050781 461.675781 122.058594 463.207031 126.179688 C 463.835938 129.558594 463.332031 132.75 461.699219 135.75 C 459.59375 136.847656 457.414062 137.015625 455.160156 136.25 C 454.921875 138.90625 454.503906 141.507812 453.902344 144.058594 C 452.761719 144.441406 451.671875 144.355469 450.632812 143.808594 C 450.382812 141.292969 450.296875 138.777344 450.382812 136.25 Z M 450.382812 136.25 "/>
<path style=" stroke:none;fill-rule:evenodd;fill:rgb(48.627451%,48.627451%,44.313725%);fill-opacity:1;" d="M 489.109375 122.652344 C 490.082031 124.773438 490.417969 127.125 490.113281 129.703125 C 489.753906 127.40625 489.417969 125.054688 489.109375 122.652344 Z M 489.109375 122.652344 "/>
<path style=" stroke:none;fill-rule:evenodd;fill:rgb(49.803922%,49.803922%,45.098039%);fill-opacity:1;" d="M 496.652344 122.652344 C 496.113281 123.121094 495.445312 123.289062 494.640625 123.15625 C 494.324219 127.222656 494.65625 131.082031 495.644531 134.742188 C 495.289062 135.195312 494.785156 135.363281 494.136719 135.246094 C 494.136719 131.046875 494.136719 126.847656 494.136719 122.652344 C 494.976562 122.652344 495.8125 122.652344 496.652344 122.652344 Z M 496.652344 122.652344 "/>
<path style=" stroke:none;fill-rule:evenodd;fill:rgb(53.333333%,54.117647%,49.803922%);fill-opacity:1;" d="M 119.949219 122.148438 C 120.558594 122.519531 121.230469 122.6875 121.960938 122.652344 C 122.367188 123.429688 122.53125 124.269531 122.464844 125.171875 C 121.730469 123.257812 120.890625 123.257812 119.949219 125.171875 C 119.949219 124.164062 119.949219 123.15625 119.949219 122.148438 Z M 119.949219 122.148438 "/>
<path style=" stroke:none;fill-rule:evenodd;fill:rgb(49.411765%,49.411765%,44.705882%);fill-opacity:1;" d="M 161.191406 123.15625 C 161.863281 123.15625 162.53125 123.15625 163.203125 123.15625 C 163.203125 125.84375 163.203125 128.527344 163.203125 131.214844 C 162.707031 128.792969 162.539062 126.277344 162.699219 123.660156 C 162.050781 123.777344 161.546875 123.609375 161.191406 123.15625 Z M 161.191406 123.15625 "/>
<path style=" stroke:none;fill-rule:evenodd;fill:rgb(85.882353%,86.666667%,86.27451%);fill-opacity:1;" d="M 240.65625 123.660156 C 243.988281 124.019531 244.492188 125.449219 242.164062 127.941406 C 241.398438 128.449219 240.558594 128.699219 239.648438 128.695312 C 239.476562 126.890625 239.8125 125.210938 240.65625 123.660156 Z M 240.65625 123.660156 "/>
<path style=" stroke:none;fill-rule:evenodd;fill:rgb(90.196078%,90.980392%,90.588235%);fill-opacity:1;" d="M 262.28125 123.15625 C 263.234375 123.054688 263.988281 123.390625 264.546875 124.164062 C 264.882812 126.679688 264.882812 129.199219 264.546875 131.71875 C 263.148438 132.542969 262.144531 132.207031 261.527344 130.710938 C 261.035156 128.082031 261.285156 125.5625 262.28125 123.15625 Z M 262.28125 123.15625 "/>
<path style=" stroke:none;fill-rule:evenodd;fill:rgb(7.843137%,8.235294%,7.45098%);fill-opacity:1;" d="M 273.851562 122.148438 C 276.203125 122.066406 278.550781 122.148438 280.890625 122.398438 C 281.609375 122.632812 282.199219 123.054688 282.652344 123.660156 C 283.355469 127.476562 283.605469 131.339844 283.40625 135.246094 C 283.996094 135.132812 284.5 135.300781 284.914062 135.75 C 282.859375 137.03125 280.765625 137.03125 278.628906 135.75 C 273.203125 138.554688 271.023438 136.875 272.089844 130.710938 C 273.808594 129.21875 275.734375 128.042969 277.875 127.183594 C 279.835938 123.769531 278.832031 122.425781 274.855469 123.15625 C 275.105469 124.316406 275.269531 125.492188 275.359375 126.679688 C 274.519531 126.679688 273.683594 126.679688 272.84375 126.679688 C 272.625 125 272.960938 123.488281 273.851562 122.148438 Z M 273.851562 122.148438 "/>
<path style=" stroke:none;fill-rule:evenodd;fill:rgb(49.803922%,50.196078%,45.098039%);fill-opacity:1;" d="M 285.921875 123.15625 C 286.589844 123.15625 287.261719 123.15625 287.933594 123.15625 C 287.933594 125.675781 287.933594 128.191406 287.933594 130.710938 C 287.4375 128.460938 287.269531 126.109375 287.429688 123.660156 C 286.78125 123.777344 286.277344 123.609375 285.921875 123.15625 Z M 285.921875 123.15625 "/>
<path style=" stroke:none;fill-rule:evenodd;fill:rgb(92.156863%,92.941176%,92.54902%);fill-opacity:1;" d="M 304.027344 123.15625 C 305.074219 123.140625 305.996094 123.476562 306.792969 124.164062 C 307.128906 127.351562 307.128906 130.542969 306.792969 133.734375 C 305.621094 135.75 304.445312 135.75 303.273438 133.734375 C 302.746094 130.089844 302.996094 126.5625 304.027344 123.15625 Z M 304.027344 123.15625 "/>
<path style=" stroke:none;fill-rule:evenodd;fill:rgb(91.764706%,92.54902%,92.156863%);fill-opacity:1;" d="M 365.886719 123.660156 C 367.167969 123.460938 368.257812 123.796875 369.15625 124.667969 C 369.597656 128.066406 369.429688 131.425781 368.652344 134.742188 C 367.480469 135.511719 366.476562 135.34375 365.636719 134.238281 C 365.253906 130.6875 365.339844 127.160156 365.886719 123.660156 Z M 365.886719 123.660156 "/>
<path style=" stroke:none;fill-rule:evenodd;fill:rgb(91.764706%,92.54902%,92.156863%);fill-opacity:1;" d="M 403.105469 123.660156 C 404.386719 123.460938 405.476562 123.796875 406.375 124.667969 C 406.816406 128.066406 406.648438 131.425781 405.871094 134.742188 C 404.699219 135.511719 403.695312 135.34375 402.855469 134.238281 C 402.472656 130.6875 402.554688 127.160156 403.105469 123.660156 Z M 403.105469 123.660156 "/>
<path style=" stroke:none;fill-rule:evenodd;fill:rgb(52.941176%,52.941176%,47.843137%);fill-opacity:1;" d="M 413.164062 123.660156 C 413.667969 123.660156 414.171875 123.660156 414.671875 123.660156 C 414.671875 126.515625 414.671875 129.367188 414.671875 132.222656 C 414.457031 129.316406 413.953125 126.460938 413.164062 123.660156 Z M 413.164062 123.660156 "/>
<path style=" stroke:none;fill-rule:evenodd;fill:rgb(96.078431%,96.078431%,96.078431%);fill-opacity:1;" d="M 455.410156 123.660156 C 456.527344 123.496094 457.449219 123.832031 458.175781 124.667969 C 458.617188 128.066406 458.449219 131.425781 457.675781 134.742188 C 456.835938 135.414062 455.996094 135.414062 455.160156 134.742188 C 454.757812 131.007812 454.84375 127.3125 455.410156 123.660156 Z M 455.410156 123.660156 "/>
<path style=" stroke:none;fill-rule:evenodd;fill:rgb(7.843137%,8.235294%,7.45098%);fill-opacity:1;" d="M 502.6875 122.148438 C 504.875 122.066406 507.054688 122.148438 509.226562 122.398438 C 510.179688 123.3125 510.433594 124.402344 509.980469 125.675781 C 507.476562 127.265625 505.210938 129.113281 503.191406 131.214844 C 504.292969 134.664062 506.554688 135.671875 509.980469 134.238281 C 510.023438 135.378906 509.4375 136.136719 508.21875 136.503906 C 499.148438 137.175781 496.382812 133.230469 499.921875 124.667969 C 500.792969 123.707031 501.714844 122.867188 502.6875 122.148438 Z M 502.6875 122.148438 "/>
<path style=" stroke:none;fill-rule:evenodd;fill:rgb(85.882353%,86.666667%,86.27451%);fill-opacity:1;" d="M 503.691406 123.660156 C 507.027344 124.019531 507.53125 125.449219 505.203125 127.941406 C 504.4375 128.449219 503.597656 128.699219 502.6875 128.695312 C 502.511719 126.890625 502.847656 125.210938 503.691406 123.660156 Z M 503.691406 123.660156 "/>
<path style=" stroke:none;fill-rule:evenodd;fill:rgb(94.117647%,94.117647%,94.117647%);fill-opacity:1;" d="M 99.832031 116.605469 C 102.210938 118.652344 102.460938 121 100.585938 123.660156 C 99.875 124.144531 99.121094 124.5625 98.324219 124.917969 C 103.3125 127.4375 104.152344 130.964844 100.839844 135.496094 C 99.847656 135.746094 98.839844 135.828125 97.820312 135.75 C 97.820312 133.398438 97.820312 131.046875 97.820312 128.695312 C 97.820312 124.667969 97.820312 120.636719 97.820312 116.605469 C 98.492188 116.605469 99.164062 116.605469 99.832031 116.605469 Z M 99.832031 116.605469 "/>
<path style=" stroke:none;fill-rule:evenodd;fill:rgb(4.313725%,4.705882%,3.921569%);fill-opacity:1;" d="M 287.933594 130.710938 C 287.933594 128.191406 287.933594 125.675781 287.933594 123.15625 C 287.261719 123.15625 286.589844 123.15625 285.921875 123.15625 C 285.976562 122.84375 286.144531 122.59375 286.421875 122.398438 C 288.101562 122.0625 289.777344 122.0625 291.453125 122.398438 C 291.8125 123.03125 292.230469 123.621094 292.710938 124.164062 C 293.835938 122.417969 295.429688 121.746094 297.488281 122.148438 C 298.019531 124.640625 297.179688 125.480469 294.972656 124.667969 C 294.03125 124.609375 293.277344 124.945312 292.710938 125.675781 C 292.238281 129.355469 291.984375 133.046875 291.957031 136.753906 C 290.613281 136.753906 289.273438 136.753906 287.933594 136.753906 C 287.933594 134.742188 287.933594 132.726562 287.933594 130.710938 Z M 287.933594 130.710938 "/>
<path style=" stroke:none;fill-rule:evenodd;fill:rgb(49.803922%,49.803922%,44.705882%);fill-opacity:1;" d="M 358.847656 122.652344 C 358.308594 123.121094 357.640625 123.289062 356.835938 123.15625 C 356.515625 127.222656 356.851562 131.082031 357.839844 134.742188 C 357.484375 135.195312 356.980469 135.363281 356.332031 135.246094 C 356.332031 131.046875 356.332031 126.847656 356.332031 122.652344 C 357.171875 122.652344 358.007812 122.652344 358.847656 122.652344 Z M 358.847656 122.652344 "/>
<path style=" stroke:none;fill-rule:evenodd;fill:rgb(46.666667%,46.666667%,41.960784%);fill-opacity:1;" d="M 108.886719 123.15625 C 109.558594 123.15625 110.226562 123.15625 110.898438 123.15625 C 110.898438 126.179688 110.898438 129.199219 110.898438 132.222656 C 110.402344 129.464844 110.234375 126.609375 110.394531 123.660156 C 109.746094 123.777344 109.242188 123.609375 108.886719 123.15625 Z M 108.886719 123.15625 "/>
<path style=" stroke:none;fill-rule:evenodd;fill:rgb(45.490196%,45.098039%,40%);fill-opacity:1;" d="M 129.507812 123.15625 C 130.175781 123.15625 130.847656 123.15625 131.519531 123.15625 C 131.519531 125.675781 131.519531 128.191406 131.519531 130.710938 C 131.023438 128.460938 130.855469 126.109375 131.015625 123.660156 C 130.367188 123.777344 129.863281 123.609375 129.507812 123.15625 Z M 129.507812 123.15625 "/>
<path style=" stroke:none;fill-rule:evenodd;fill:rgb(45.490196%,45.098039%,40%);fill-opacity:1;" d="M 169.742188 123.15625 C 170.414062 123.15625 171.082031 123.15625 171.753906 123.15625 C 171.753906 125.675781 171.753906 128.191406 171.753906 130.710938 C 171.257812 128.460938 171.089844 126.109375 171.25 123.660156 C 170.601562 123.777344 170.097656 123.609375 169.742188 123.15625 Z M 169.742188 123.15625 "/>
<path style=" stroke:none;fill-rule:evenodd;fill:rgb(48.235294%,47.843137%,43.137255%);fill-opacity:1;" d="M 327.160156 123.15625 C 327.832031 123.15625 328.503906 123.15625 329.171875 123.15625 C 329.171875 126.179688 329.171875 129.199219 329.171875 132.222656 C 328.675781 129.464844 328.507812 126.609375 328.671875 123.660156 C 328.019531 123.777344 327.519531 123.609375 327.160156 123.15625 Z M 327.160156 123.15625 "/>
<path style=" stroke:none;fill-rule:evenodd;fill:rgb(52.54902%,52.941176%,46.666667%);fill-opacity:1;" d="M 429.257812 123.15625 C 429.929688 123.15625 430.597656 123.15625 431.269531 123.15625 C 431.269531 126.34375 431.269531 129.535156 431.269531 132.726562 C 430.773438 129.800781 430.605469 126.777344 430.765625 123.660156 C 430.117188 123.777344 429.613281 123.609375 429.257812 123.15625 Z M 429.257812 123.15625 "/>
<path style=" stroke:none;fill-rule:evenodd;fill:rgb(58.431373%,59.215686%,56.470588%);fill-opacity:1;" d="M 219.03125 115.097656 C 219.84375 116.613281 220.261719 118.292969 220.289062 120.132812 C 220.539062 125.503906 220.621094 130.875 220.539062 136.25 C 220.234375 131.53125 219.734375 126.828125 219.03125 122.148438 C 219.03125 121.476562 219.03125 120.804688 219.03125 120.132812 C 219.488281 118.359375 219.488281 116.683594 219.03125 115.097656 Z M 219.03125 115.097656 "/>
<path style=" stroke:none;fill-rule:evenodd;fill:rgb(7.058824%,7.45098%,6.666667%);fill-opacity:1;" d="M 381.980469 122.148438 C 383.941406 121.953125 385.785156 122.289062 387.515625 123.15625 C 389.21875 126.433594 390.726562 129.792969 392.039062 133.230469 C 392.605469 132.289062 393.023438 131.28125 393.296875 130.207031 C 393.550781 127.527344 393.632812 124.839844 393.550781 122.148438 C 394.21875 122.148438 394.890625 122.148438 395.5625 122.148438 C 395.9375 128.15625 394.511719 133.699219 391.285156 138.769531 C 388.378906 142.402344 384.605469 143.910156 379.96875 143.304688 C 379.96875 142.632812 379.96875 141.960938 379.96875 141.289062 C 383.058594 142.835938 385.824219 142.332031 388.269531 139.777344 C 388.351562 139.273438 388.4375 138.769531 388.519531 138.265625 C 387.214844 133.636719 385.621094 129.101562 383.742188 124.667969 C 383.03125 124.019531 382.277344 123.429688 381.480469 122.902344 C 381.757812 122.710938 381.925781 122.457031 381.980469 122.148438 Z M 381.980469 122.148438 "/>
<path style=" stroke:none;fill-rule:evenodd;fill:rgb(52.941176%,51.764706%,44.705882%);fill-opacity:1;" d="M 448.371094 123.15625 C 449.039062 123.15625 449.710938 123.15625 450.382812 123.15625 C 450.382812 127.519531 450.382812 131.886719 450.382812 136.25 C 449.882812 132.148438 449.714844 127.949219 449.878906 123.660156 C 449.230469 123.777344 448.726562 123.609375 448.371094 123.15625 Z M 448.371094 123.15625 "/>
<path style=" stroke:none;fill-rule:evenodd;fill:rgb(90.196078%,90.196078%,90.196078%);fill-opacity:1;" d="M 276.867188 128.695312 C 277.539062 128.695312 278.210938 128.695312 278.878906 128.695312 C 278.960938 130.550781 278.878906 132.398438 278.628906 134.238281 C 277.773438 134.695312 276.851562 134.859375 275.863281 134.742188 C 275.605469 132.566406 275.941406 130.554688 276.867188 128.695312 Z M 276.867188 128.695312 "/>
<path style=" stroke:none;fill-rule:evenodd;fill:rgb(90.196078%,90.196078%,90.196078%);fill-opacity:1;" d="M 479.050781 128.695312 C 479.71875 128.695312 480.390625 128.695312 481.0625 128.695312 C 481.144531 130.550781 481.058594 132.398438 480.808594 134.238281 C 479.953125 134.695312 479.03125 134.859375 478.042969 134.742188 C 477.785156 132.566406 478.121094 130.554688 479.050781 128.695312 Z M 479.050781 128.695312 "/>
<path style=" stroke:none;fill-rule:evenodd;fill:rgb(49.803922%,49.803922%,45.490196%);fill-opacity:1;" d="M 217.019531 122.652344 C 216.480469 123.121094 215.808594 123.289062 215.007812 123.15625 C 214.6875 127.222656 215.023438 131.082031 216.011719 134.742188 C 215.65625 135.195312 215.152344 135.363281 214.503906 135.246094 C 214.503906 131.046875 214.503906 126.847656 214.503906 122.652344 C 215.339844 122.652344 216.179688 122.652344 217.019531 122.652344 Z M 217.019531 122.652344 "/>
<path style=" stroke:none;fill-rule:evenodd;fill:rgb(8.235294%,8.627451%,7.843137%);fill-opacity:1;" d="M 318.109375 122.148438 C 320.292969 122.066406 322.472656 122.148438 324.648438 122.398438 C 325.601562 123.3125 325.851562 124.402344 325.402344 125.675781 C 322.894531 127.265625 320.632812 129.113281 318.613281 131.214844 C 319.714844 134.664062 321.976562 135.671875 325.402344 134.238281 C 325.65625 134.992188 325.40625 135.578125 324.648438 136 C 315.007812 137.757812 311.90625 133.980469 315.34375 124.667969 C 316.210938 123.707031 317.132812 122.867188 318.109375 122.148438 Z M 318.109375 122.148438 "/>
<path style=" stroke:none;fill-rule:evenodd;fill:rgb(85.882353%,86.666667%,86.27451%);fill-opacity:1;" d="M 319.113281 123.660156 C 322.449219 124.019531 322.953125 125.449219 320.625 127.941406 C 319.855469 128.449219 319.019531 128.699219 318.109375 128.695312 C 317.933594 126.890625 318.269531 125.210938 319.113281 123.660156 Z M 319.113281 123.660156 "/>
<path style=" stroke:none;fill-rule:evenodd;fill:rgb(9.019608%,9.019608%,8.235294%);fill-opacity:1;" d="M 157.671875 118.621094 C 159.175781 118.449219 159.84375 119.121094 159.683594 120.636719 C 159.421875 121.917969 159.085938 123.175781 158.675781 124.414062 C 160.140625 131.429688 157.292969 134.535156 150.128906 133.734375 C 150.128906 134.238281 150.128906 134.742188 150.128906 135.246094 C 153.171875 135.667969 156.1875 136.257812 159.179688 137.007812 C 161.070312 140.285156 160.230469 142.46875 156.664062 143.554688 C 153.648438 143.890625 150.628906 143.890625 147.613281 143.554688 C 146.910156 143.074219 146.574219 142.402344 146.605469 141.539062 C 146.882812 140.425781 147.382812 139.417969 148.117188 138.519531 C 147.34375 136.558594 147.511719 134.714844 148.617188 132.976562 C 145.050781 123.871094 148.070312 120.429688 157.671875 122.652344 C 157.441406 121.238281 157.441406 119.894531 157.671875 118.621094 Z M 157.671875 118.621094 "/>
<path style=" stroke:none;fill-rule:evenodd;fill:rgb(90.196078%,90.980392%,90.588235%);fill-opacity:1;" d="M 152.140625 123.15625 C 153.089844 123.054688 153.84375 123.390625 154.402344 124.164062 C 154.738281 126.679688 154.738281 129.199219 154.402344 131.71875 C 153.007812 132.542969 152 132.207031 151.382812 130.710938 C 150.890625 128.082031 151.140625 125.5625 152.140625 123.15625 Z M 152.140625 123.15625 "/>
<path style=" stroke:none;fill-rule:evenodd;fill:rgb(9.019608%,9.019608%,8.235294%);fill-opacity:1;" d="M 197.90625 118.621094 C 199.410156 118.449219 200.078125 119.121094 199.917969 120.636719 C 199.65625 121.917969 199.320312 123.175781 198.914062 124.414062 C 200.375 131.429688 197.527344 134.535156 190.363281 133.734375 C 190.363281 134.238281 190.363281 134.742188 190.363281 135.246094 C 193.40625 135.667969 196.421875 136.257812 199.414062 137.007812 C 201.304688 140.285156 200.46875 142.46875 196.902344 143.554688 C 193.882812 143.890625 190.867188 143.890625 187.847656 143.554688 C 187.148438 143.074219 186.8125 142.402344 186.839844 141.539062 C 187.117188 140.425781 187.621094 139.417969 188.351562 138.519531 C 187.578125 136.558594 187.746094 134.714844 188.851562 132.976562 C 185.285156 123.871094 188.304688 120.429688 197.90625 122.652344 C 197.675781 121.238281 197.675781 119.894531 197.90625 118.621094 Z M 197.90625 118.621094 "/>
<path style=" stroke:none;fill-rule:evenodd;fill:rgb(90.196078%,90.980392%,90.588235%);fill-opacity:1;" d="M 192.375 123.15625 C 193.324219 123.054688 194.078125 123.390625 194.636719 124.164062 C 194.972656 126.679688 194.972656 129.199219 194.636719 131.71875 C 193.242188 132.542969 192.234375 132.207031 191.621094 130.710938 C 191.125 128.082031 191.375 125.5625 192.375 123.15625 Z M 192.375 123.15625 "/>
<path style=" stroke:none;fill-rule:evenodd;fill:rgb(84.705882%,62.745098%,37.254902%);fill-opacity:1;" d="M 259.769531 139.273438 C 261.785156 139.191406 263.796875 139.273438 265.804688 139.527344 C 267.078125 140.574219 267.078125 141.582031 265.804688 142.546875 C 263.792969 142.882812 261.78125 142.882812 259.769531 142.546875 C 259.128906 141.457031 259.128906 140.367188 259.769531 139.273438 Z M 259.769531 139.273438 "/>
<path style=" stroke:none;fill-rule:evenodd;fill:rgb(85.490196%,62.745098%,36.078431%);fill-opacity:1;" d="M 149.625 139.273438 C 151.644531 139.191406 153.65625 139.273438 155.660156 139.527344 C 156.933594 140.574219 156.933594 141.582031 155.660156 142.546875 C 153.648438 142.882812 151.636719 142.882812 149.625 142.546875 C 148.988281 141.457031 148.988281 140.367188 149.625 139.273438 Z M 149.625 139.273438 "/>
<path style=" stroke:none;fill-rule:evenodd;fill:rgb(85.490196%,62.745098%,36.078431%);fill-opacity:1;" d="M 189.859375 139.273438 C 191.878906 139.191406 193.890625 139.273438 195.894531 139.527344 C 197.167969 140.574219 197.167969 141.582031 195.894531 142.546875 C 193.882812 142.882812 191.871094 142.882812 189.859375 142.546875 C 189.222656 141.457031 189.222656 140.367188 189.859375 139.273438 Z M 189.859375 139.273438 "/>
<path style=" stroke:none;fill-rule:evenodd;fill:rgb(85.882353%,63.137255%,36.862745%);fill-opacity:1;" d="M 295.476562 181.585938 C 298.015625 181.398438 300.363281 181.984375 302.519531 183.347656 C 303.308594 184.269531 303.726562 185.359375 303.773438 186.621094 C 304.109375 193.339844 304.109375 200.054688 303.773438 206.769531 C 301.9375 210.078125 299.171875 211.171875 295.476562 210.042969 C 294.21875 209.457031 293.296875 208.535156 292.710938 207.273438 C 292.375 199.886719 292.375 192.5 292.710938 185.109375 C 293.546875 183.855469 294.46875 182.679688 295.476562 181.585938 Z M 295.476562 181.585938 "/>
<path style=" stroke:none;fill-rule:evenodd;fill:rgb(85.882353%,63.529412%,37.254902%);fill-opacity:1;" d="M 264.796875 196.191406 C 267.222656 195.925781 269.402344 196.515625 271.335938 197.957031 C 276.316406 202.605469 280.925781 207.558594 285.167969 212.816406 C 285.5625 218.796875 282.796875 221.230469 276.867188 220.117188 C 271.046875 215.296875 265.933594 209.839844 261.527344 203.75 C 261.128906 202.167969 261.296875 200.660156 262.03125 199.214844 C 263.058594 198.273438 263.980469 197.265625 264.796875 196.191406 Z M 264.796875 196.191406 "/>
<path style=" stroke:none;fill-rule:evenodd;fill:rgb(85.882353%,63.529412%,37.254902%);fill-opacity:1;" d="M 326.660156 196.695312 C 333.949219 196.1875 336.378906 199.378906 333.953125 206.265625 C 329.160156 211.234375 324.214844 216.019531 319.113281 220.621094 C 312.941406 221.320312 310.34375 218.550781 311.320312 212.3125 C 316.195312 206.835938 321.308594 201.632812 326.660156 196.695312 Z M 326.660156 196.695312 "/>
<path style=" stroke:none;fill-rule:evenodd;fill:rgb(1.176471%,1.176471%,0.784314%);fill-opacity:1;" d="M 274.351562 382.058594 C 263.425781 340.078125 270.296875 301.292969 294.972656 265.703125 C 320.5 230.375 355.035156 209.976562 398.578125 204.503906 C 413.34375 203.539062 427.929688 204.714844 442.335938 208.03125 C 444.957031 208.542969 446.882812 209.96875 448.117188 212.3125 C 460.414062 273.027344 442.390625 322.472656 394.050781 360.652344 C 358.765625 385.886719 319.871094 393.777344 277.371094 384.324219 C 276.285156 383.65625 275.277344 382.898438 274.351562 382.058594 Z M 274.351562 382.058594 "/>
<path style=" stroke:none;fill-rule:evenodd;fill:rgb(0.784314%,0.784314%,0.392157%);fill-opacity:1;" d="M 285.417969 255.125 C 283.054688 256.769531 280.542969 257.023438 277.875 255.882812 C 271.265625 249.097656 264.140625 242.96875 256.5 237.496094 C 255.929688 248.558594 255.675781 259.640625 255.746094 270.742188 C 255.765625 282.160156 255.933594 293.578125 256.246094 304.992188 C 256.414062 306.335938 256.582031 307.679688 256.75 309.023438 C 258.921875 311.449219 261.183594 313.800781 263.539062 316.074219 C 265.066406 321.933594 262.804688 324.871094 256.75 324.890625 C 256.078125 324.554688 255.410156 324.21875 254.738281 323.882812 C 245.363281 313.988281 235.808594 304.25 226.070312 294.667969 C 205.960938 293.792969 185.84375 293.707031 165.71875 294.414062 C 177.941406 323.363281 197.722656 345.609375 225.066406 361.15625 C 233.503906 365.929688 242.386719 369.625 251.722656 372.238281 C 253.757812 374.050781 254.59375 376.316406 254.234375 379.035156 C 252.527344 382.746094 249.675781 384.003906 245.6875 382.816406 C 202.160156 367.933594 171.398438 339.308594 153.394531 296.933594 C 142.949219 269.25 141.273438 241.042969 148.367188 212.3125 C 149.835938 209.933594 151.929688 208.339844 154.652344 207.527344 C 205.65625 197.859375 249.496094 211.207031 286.171875 247.570312 C 287.285156 250.246094 287.03125 252.765625 285.417969 255.125 Z M 285.417969 255.125 "/>
<path style=" stroke:none;fill-rule:evenodd;fill:rgb(15.294118%,20.784314%,8.627451%);fill-opacity:1;" d="M 202.9375 221.378906 C 202.523438 232.042969 202.1875 242.789062 201.929688 253.613281 C 189.984375 241.902344 178.082031 230.066406 166.222656 218.105469 C 169.167969 217.273438 172.1875 216.769531 175.273438 216.59375 C 184.339844 216.15625 193.394531 216.324219 202.433594 217.097656 C 202.90625 218.464844 203.074219 219.894531 202.9375 221.378906 Z M 202.9375 221.378906 "/>
<path style=" stroke:none;fill-rule:evenodd;fill:rgb(36.862745%,41.960784%,21.568627%);fill-opacity:1;" d="M 387.515625 260.667969 C 387.179688 249.082031 386.84375 237.496094 386.507812 225.910156 C 386.550781 223.375 386.804688 220.855469 387.261719 218.355469 C 390.277344 217.417969 393.378906 216.832031 396.566406 216.59375 C 407.847656 215.980469 419.078125 216.402344 430.265625 217.851562 C 416.171875 232.300781 401.921875 246.574219 387.515625 260.667969 Z M 387.515625 260.667969 "/>
<path style=" stroke:none;fill-rule:evenodd;fill:rgb(14.901961%,20.784314%,9.019608%);fill-opacity:1;" d="M 215.007812 219.867188 C 225.003906 222.054688 234.476562 225.582031 243.421875 230.445312 C 243.757812 252.105469 243.757812 273.761719 243.421875 295.421875 C 234.035156 286.019531 224.644531 276.617188 215.257812 267.214844 C 215.007812 251.433594 214.921875 235.648438 215.007812 219.867188 Z M 215.007812 219.867188 "/>
<path style=" stroke:none;fill-rule:evenodd;fill:rgb(36.862745%,41.960784%,21.568627%);fill-opacity:1;" d="M 335.207031 313.050781 C 335.09375 289.539062 334.761719 266.035156 334.203125 242.535156 C 345.941406 232.875 359.183594 225.992188 373.933594 221.882812 C 374.019531 239.511719 373.933594 257.140625 373.683594 274.769531 C 360.886719 287.671875 348.0625 300.429688 335.207031 313.050781 Z M 335.207031 313.050781 "/>
<path style=" stroke:none;fill-rule:evenodd;fill:rgb(14.901961%,20.784314%,9.019608%);fill-opacity:1;" d="M 157.167969 226.917969 C 175.804688 244.828125 194.246094 263.042969 212.492188 281.570312 C 195.226562 281.820312 177.957031 281.90625 160.6875 281.820312 C 156.054688 263.773438 154.882812 245.46875 157.167969 226.917969 Z M 157.167969 226.917969 "/>
<path style=" stroke:none;fill-rule:evenodd;fill:rgb(36.862745%,41.960784%,21.568627%);fill-opacity:1;" d="M 437.808594 226.917969 C 438.527344 227.109375 438.945312 227.613281 439.066406 228.429688 C 441.109375 244.128906 440.605469 259.746094 437.558594 275.273438 C 435.449219 282.382812 433.183594 289.433594 430.765625 296.429688 C 410.3125 296.515625 389.859375 296.429688 369.410156 296.179688 C 392.53125 273.269531 415.332031 250.183594 437.808594 226.917969 Z M 437.808594 226.917969 "/>
<path style=" stroke:none;fill-rule:evenodd;fill:rgb(41.960784%,36.470588%,24.313725%);fill-opacity:1;" d="M 202.9375 221.378906 C 203.699219 232.472656 203.53125 243.554688 202.433594 254.621094 C 202.03125 254.390625 201.863281 254.054688 201.929688 253.613281 C 202.1875 242.789062 202.523438 232.042969 202.9375 221.378906 Z M 202.9375 221.378906 "/>
<path style=" stroke:none;fill-rule:evenodd;fill:rgb(15.686275%,21.176471%,9.411765%);fill-opacity:1;" d="M 285.417969 255.125 C 288.421875 258.804688 291.605469 262.332031 294.972656 265.703125 C 270.296875 301.292969 263.425781 340.078125 274.351562 382.058594 C 267.617188 381.210938 260.910156 380.203125 254.234375 379.035156 C 254.59375 376.316406 253.757812 374.050781 251.722656 372.238281 C 242.386719 369.625 233.503906 365.929688 225.066406 361.15625 C 197.722656 345.609375 177.941406 323.363281 165.71875 294.414062 C 185.84375 293.707031 205.960938 293.792969 226.070312 294.667969 C 235.808594 304.25 245.363281 313.988281 254.738281 323.882812 C 255.410156 324.21875 256.078125 324.554688 256.75 324.890625 C 262.804688 324.871094 265.066406 321.933594 263.539062 316.074219 C 261.183594 313.800781 258.921875 311.449219 256.75 309.023438 C 256.582031 307.679688 256.414062 306.335938 256.246094 304.992188 C 255.933594 293.578125 255.765625 282.160156 255.746094 270.742188 C 255.675781 259.640625 255.929688 248.558594 256.5 237.496094 C 264.140625 242.96875 271.265625 249.097656 277.875 255.882812 C 280.542969 257.023438 283.054688 256.769531 285.417969 255.125 Z M 285.417969 255.125 "/>
<path style=" stroke:none;fill-rule:evenodd;fill:rgb(41.176471%,35.294118%,21.568627%);fill-opacity:1;" d="M 386.507812 225.910156 C 386.84375 237.496094 387.179688 249.082031 387.515625 260.667969 C 387.484375 260.941406 387.316406 261.109375 387.011719 261.171875 C 385.90625 249.429688 385.738281 237.675781 386.507812 225.910156 Z M 386.507812 225.910156 "/>
<path style=" stroke:none;fill-rule:evenodd;fill:rgb(36.862745%,41.960784%,21.568627%);fill-opacity:1;" d="M 320.625 253.613281 C 321.292969 265.78125 321.628906 278.125 321.628906 290.636719 C 321.546875 302.976562 321.460938 315.320312 321.378906 327.660156 C 308.636719 340.417969 295.894531 353.179688 283.15625 365.941406 C 277.203125 328.496094 286.089844 295.082031 309.808594 265.703125 C 313.519531 261.738281 317.125 257.710938 320.625 253.613281 Z M 320.625 253.613281 "/>
<path style=" stroke:none;fill-rule:evenodd;fill:rgb(42.745098%,39.607843%,21.568627%);fill-opacity:1;" d="M 334.203125 242.535156 C 334.761719 266.035156 335.09375 289.539062 335.207031 313.050781 C 335.003906 313.628906 334.667969 314.132812 334.203125 314.5625 C 332.875 290.472656 332.875 266.464844 334.203125 242.535156 Z M 334.203125 242.535156 "/>
<path style=" stroke:none;fill-rule:evenodd;fill:rgb(37.254902%,41.960784%,21.568627%);fill-opacity:1;" d="M 356.332031 309.023438 C 378.800781 308.855469 401.261719 309.023438 423.726562 309.527344 C 416.09375 322.292969 406.707031 333.625 395.5625 343.527344 C 371.246094 344.589844 346.9375 344.507812 322.636719 343.273438 C 333.878906 331.847656 345.109375 320.429688 356.332031 309.023438 Z M 356.332031 309.023438 "/>
<path style=" stroke:none;fill-rule:evenodd;fill:rgb(84.313725%,62.352941%,36.078431%);fill-opacity:1;" d="M 203.4375 320.105469 C 211.09375 319.785156 213.523438 323.140625 210.730469 330.179688 C 206.253906 333.421875 202.734375 332.582031 200.167969 327.660156 C 199.835938 326.652344 199.835938 325.644531 200.167969 324.636719 C 200.980469 322.90625 202.070312 321.394531 203.4375 320.105469 Z M 203.4375 320.105469 "/>
<path style=" stroke:none;fill-rule:evenodd;fill:rgb(85.098039%,62.745098%,36.470588%);fill-opacity:1;" d="M 219.03125 333.199219 C 220.382812 333.117188 221.722656 333.203125 223.054688 333.453125 C 234.21875 341.269531 246.292969 347.316406 259.265625 351.585938 C 262.101562 354.320312 262.523438 357.425781 260.523438 360.902344 C 257.945312 362.359375 255.179688 362.777344 252.222656 362.164062 C 239.238281 357.695312 227.332031 351.316406 216.515625 343.023438 C 214.546875 338.953125 215.386719 335.679688 219.03125 333.199219 Z M 219.03125 333.199219 "/>
<path style=" stroke:none;fill-rule:evenodd;fill:rgb(37.254902%,41.568627%,21.568627%);fill-opacity:1;" d="M 323.136719 355.363281 C 341.925781 355.15625 360.699219 355.40625 379.46875 356.117188 C 352.648438 373.511719 323.480469 379.554688 291.957031 374.25 C 298.007812 368.359375 303.875 362.316406 309.558594 356.117188 C 314.171875 356.03125 318.699219 355.78125 323.136719 355.363281 Z M 323.136719 355.363281 "/>
</g>
</svg>
