<?xml version="1.0" encoding="UTF-8"?>
<!DOCTYPE svg PUBLIC "-//W3C//DTD SVG 1.1//EN" "http://www.w3.org/Graphics/SVG/1.1/DTD/svg11.dtd">
<svg xmlns="http://www.w3.org/2000/svg" version="1.1" width="1200px" height="1200px" style="shape-rendering:geometricPrecision; text-rendering:geometricPrecision; image-rendering:optimizeQuality; fill-rule:evenodd; clip-rule:evenodd" xmlns:xlink="http://www.w3.org/1999/xlink">
<g><path style="opacity:1" fill="#fefae0" d="M -0.5,-0.5 C 399.5,-0.5 799.5,-0.5 1199.5,-0.5C 1199.5,399.5 1199.5,799.5 1199.5,1199.5C 799.5,1199.5 399.5,1199.5 -0.5,1199.5C -0.5,799.5 -0.5,399.5 -0.5,-0.5 Z"/></g>
<g><path style="opacity:1" fill="#bc6c25" d="M 345.5,304.5 C 358.167,304.5 370.833,304.5 383.5,304.5C 383.5,306.167 383.5,307.833 383.5,309.5C 380.5,309.5 377.5,309.5 374.5,309.5C 374.667,324.504 374.5,339.504 374,354.5C 371.392,367.11 363.892,375.277 351.5,379C 343.898,380.523 336.232,380.856 328.5,380C 325.624,379.562 322.957,378.562 320.5,377C 319.081,373.837 319.415,370.837 321.5,368C 322.833,367.333 324.167,367.333 325.5,368C 328.682,375.756 334.348,378.423 342.5,376C 349.097,373.737 353.264,369.237 355,362.5C 356.225,357.915 356.725,353.248 356.5,348.5C 322.386,352.556 304.72,337.389 303.5,303C 304.086,276.121 317.419,259.787 343.5,254C 350.62,253.284 357.62,253.95 364.5,256C 376.655,261.154 378.655,268.82 370.5,279C 366.219,280.458 363.053,279.292 361,275.5C 360.254,271.104 359.254,266.77 358,262.5C 353.096,258.731 347.929,258.565 342.5,262C 330.201,273.614 324.534,287.947 325.5,305C 325.499,315.33 327.666,325.164 332,334.5C 338.148,342.278 345.981,344.612 355.5,341.5C 356.499,330.854 356.832,320.187 356.5,309.5C 352.833,309.5 349.167,309.5 345.5,309.5C 345.5,307.833 345.5,306.167 345.5,304.5 Z"/></g>
<g><path style="opacity:1" fill="#dda15e" d="M 715.5,259.5 C 712.375,258.521 709.042,258.187 705.5,258.5C 705.5,272.167 705.5,285.833 705.5,299.5C 714.167,299.5 722.833,299.5 731.5,299.5C 731.5,301.167 731.5,302.833 731.5,304.5C 722.833,304.5 714.167,304.5 705.5,304.5C 705.173,314.681 705.506,324.681 706.5,334.5C 708.959,339.745 713.126,341.745 719,340.5C 726.37,340.402 733.203,338.402 739.5,334.5C 741.101,335.035 741.601,336.035 741,337.5C 726.834,349.667 711,352.5 693.5,346C 689.338,343.188 686.505,339.355 685,334.5C 684.5,324.506 684.334,314.506 684.5,304.5C 681.167,304.5 677.833,304.5 674.5,304.5C 674.5,302.833 674.5,301.167 674.5,299.5C 677.833,299.5 681.167,299.5 684.5,299.5C 684.5,286.167 684.5,272.833 684.5,259.5C 675.144,260.003 667.311,263.67 661,270.5C 657.967,281.631 661.467,284.298 671.5,278.5C 673.601,278.632 675.101,279.632 676,281.5C 677.45,289.88 673.95,294.214 665.5,294.5C 656.856,293.684 652.523,288.851 652.5,280C 652.918,272.59 656.251,266.923 662.5,263C 671.091,257.803 680.425,254.803 690.5,254C 705.536,253.124 720.536,253.457 735.5,255C 737.646,255.479 738.646,256.812 738.5,259C 738.4,261.37 737.4,263.203 735.5,264.5C 729.336,260.778 722.669,259.111 715.5,259.5 Z"/></g>
<g><path style="opacity:1" fill="#d9dbda" d="M 715.5,259.5 C 712.5,259.5 709.5,259.5 706.5,259.5C 706.5,272.5 706.5,285.5 706.5,298.5C 715.017,298.174 723.35,298.507 731.5,299.5C 722.833,299.5 714.167,299.5 705.5,299.5C 705.5,285.833 705.5,272.167 705.5,258.5C 709.042,258.187 712.375,258.521 715.5,259.5 Z"/></g>
<g><path style="opacity:1" fill="#040404" d="M 830.5,265.5 C 832.167,265.5 833.833,265.5 835.5,265.5C 835.177,271.69 835.51,277.69 836.5,283.5C 841.233,283.777 845.9,283.443 850.5,282.5C 850.833,282.167 851.167,281.833 851.5,281.5C 847.643,280.413 846.643,278.079 848.5,274.5C 850.949,273.09 853.116,273.424 855,275.5C 856.922,281.383 855.089,285.549 849.5,288C 844.845,288.499 840.179,288.666 835.5,288.5C 835.333,304.503 835.5,320.503 836,336.5C 836.101,339.435 837.601,340.769 840.5,340.5C 841.894,340.379 843.228,340.046 844.5,339.5C 845.5,337.833 846.833,336.5 848.5,335.5C 848.566,339.841 846.566,343.341 842.5,346C 832.043,352.145 823.543,350.312 817,340.5C 816.51,339.207 816.343,337.873 816.5,336.5C 816.5,320.167 816.5,303.833 816.5,287.5C 814.167,287.5 811.833,287.5 809.5,287.5C 809.5,286.167 809.5,284.833 809.5,283.5C 820.194,281.805 827.194,275.805 830.5,265.5 Z"/></g>
<g><path style="opacity:1" fill="#7b8383" d="M 830.5,265.5 C 832.265,264.539 834.265,264.205 836.5,264.5C 836.5,270.833 836.5,277.167 836.5,283.5C 835.51,277.69 835.177,271.69 835.5,265.5C 833.833,265.5 832.167,265.5 830.5,265.5 Z"/></g>
<g><path style="opacity:1" fill="#030303" d="M 397.5,282.5 C 407.587,281.092 413.087,285.425 414,295.5C 417.5,290.667 421.667,286.5 426.5,283C 430.18,281.973 433.347,282.806 436,285.5C 436.796,289.755 436.629,293.921 435.5,298C 433.432,297.983 431.766,296.983 430.5,295C 423.891,294.217 418.391,296.383 414,301.5C 413.667,316.167 413.333,330.833 413,345.5C 409.647,349.203 405.48,350.369 400.5,349C 398.069,348.705 396.236,347.538 395,345.5C 394.667,327.5 394.333,309.5 394,291.5C 393.5,291 393,290.5 392.5,290C 390.239,289.761 388.239,289.594 386.5,289.5C 389.72,286.394 393.387,284.061 397.5,282.5 Z"/></g>
<g><path style="opacity:1" fill="#070808" d="M 465.5,282.5 C 474.02,281.05 481.52,283.05 488,288.5C 491.555,293.734 491.055,298.567 486.5,303C 477.585,308.041 468.751,313.207 460,318.5C 460.315,334.477 468.482,341.643 484.5,340C 487.341,338.414 490.007,336.58 492.5,334.5C 492.833,335 493.167,335.5 493.5,336C 482.017,350.353 468.017,353.353 451.5,345C 440.607,335.66 436.44,323.826 439,309.5C 443.351,295.984 452.184,286.984 465.5,282.5 Z"/></g>
<g><path style="opacity:1" fill="#070808" d="M 524.5,282.5 C 533.02,281.05 540.52,283.05 547,288.5C 550.555,293.734 550.055,298.567 545.5,303C 536.585,308.041 527.751,313.207 519,318.5C 519.315,334.477 527.482,341.643 543.5,340C 546.341,338.414 549.007,336.58 551.5,334.5C 551.833,335 552.167,335.5 552.5,336C 541.017,350.353 527.017,353.353 510.5,345C 499.607,335.66 495.44,323.826 498,309.5C 502.351,295.984 511.184,286.984 524.5,282.5 Z"/></g>
<g><path style="opacity:1" fill="#040404" d="M 565.5,282.5 C 575.325,280.811 580.825,284.811 582,294.5C 589.007,282.94 598.507,280.106 610.5,286C 612.617,287.731 614.117,289.898 615,292.5C 621.164,312.107 619.164,330.774 609,348.5C 603.414,355.197 596.248,358.53 587.5,358.5C 587.5,357.5 587.5,356.5 587.5,355.5C 590.263,355.256 592.429,353.923 594,351.5C 597.855,341.356 599.355,330.856 598.5,320C 598.565,312.781 598.065,305.615 597,298.5C 595.159,292.994 591.659,291.494 586.5,294C 584.641,295.558 583.141,297.391 582,299.5C 581.818,315.211 581.318,330.878 580.5,346.5C 575.436,350.13 570.103,350.463 564.5,347.5C 563.808,346.975 563.308,346.308 563,345.5C 562.667,327.5 562.333,309.5 562,291.5C 561.5,291 561,290.5 560.5,290C 558.239,289.761 556.239,289.594 554.5,289.5C 557.72,286.394 561.387,284.061 565.5,282.5 Z"/></g>
<g><path style="opacity:1" fill="#050606" d="M 767.5,282.5 C 776.434,281.65 784.767,283.484 792.5,288C 794.359,289.558 795.859,291.391 797,293.5C 798.287,309.1 798.954,324.766 799,340.5C 801.602,340.899 804.102,340.899 806.5,340.5C 799.711,349.835 791.544,351.502 782,345.5C 781.261,343.779 780.427,342.113 779.5,340.5C 773.482,347.784 765.815,350.617 756.5,349C 747.797,344.426 744.297,337.259 746,327.5C 747.679,322.82 750.512,318.987 754.5,316C 760.589,312.748 766.922,310.082 773.5,308C 780.907,301.936 781.24,295.602 774.5,289C 769.422,286.867 764.589,287.367 760,290.5C 758.794,293.838 759.96,295.671 763.5,296C 766.129,299.199 765.796,302.199 762.5,305C 752.007,306.16 748.507,301.66 752,291.5C 756.129,286.531 761.295,283.531 767.5,282.5 Z"/></g>
<g><path style="opacity:1" fill="#060707" d="M 870.5,282.5 C 878.63,281.55 885.797,283.55 892,288.5C 896.117,298.37 893.117,302.037 883,299.5C 882.333,297.833 882.333,296.167 883,294.5C 887.347,292.501 887.514,290.334 883.5,288C 873.437,287.384 870.603,291.551 875,300.5C 883.118,307.612 890.118,315.612 896,324.5C 898.379,340.959 891.212,349.292 874.5,349.5C 865.429,349.3 858.429,345.467 853.5,338C 853.833,337.5 854.167,337 854.5,336.5C 857.963,339.565 861.963,341.565 866.5,342.5C 874.509,342.33 878.009,338.33 877,330.5C 872.043,323.874 866.709,317.54 861,311.5C 851.501,297.497 854.668,287.83 870.5,282.5 Z"/></g>
<g><path style="opacity:1" fill="#c2c4c4" d="M 809.5,287.5 C 811.833,287.5 814.167,287.5 816.5,287.5C 816.5,303.833 816.5,320.167 816.5,336.5C 815.504,320.675 815.17,304.675 815.5,288.5C 813.265,288.795 811.265,288.461 809.5,287.5 Z"/></g>
<g><path style="opacity:1" fill="#f7f7f7" d="M 464.5,289.5 C 469.598,288.429 472.764,290.429 474,295.5C 474.667,298.5 474.667,301.5 474,304.5C 469.418,307.876 464.585,310.876 459.5,313.5C 457.125,304.559 458.792,296.559 464.5,289.5 Z"/></g>
<g><path style="opacity:1" fill="#f7f7f7" d="M 523.5,289.5 C 528.598,288.429 531.764,290.429 533,295.5C 533.667,298.5 533.667,301.5 533,304.5C 528.418,307.876 523.585,310.876 518.5,313.5C 516.125,304.559 517.792,296.559 523.5,289.5 Z"/></g>
<g><path style="opacity:1" fill="#4b5252" d="M 345.5,304.5 C 358.323,303.505 371.323,303.171 384.5,303.5C 384.795,305.735 384.461,307.735 383.5,309.5C 383.5,307.833 383.5,306.167 383.5,304.5C 370.833,304.5 358.167,304.5 345.5,304.5 Z"/></g>
<g><path style="opacity:1" fill="#ced1d0" d="M 731.5,304.5 C 723.35,305.493 715.017,305.826 706.5,305.5C 706.5,315.167 706.5,324.833 706.5,334.5C 705.506,324.681 705.173,314.681 705.5,304.5C 714.167,304.5 722.833,304.5 731.5,304.5 Z"/></g>
<g><path style="opacity:1" fill="#f3f4f4" d="M 771.5,312.5 C 774.365,312.055 776.865,312.722 779,314.5C 779.667,320.833 779.667,327.167 779,333.5C 777.525,337.475 774.691,339.808 770.5,340.5C 767.542,339.62 765.709,337.62 765,334.5C 764.161,329.079 764.494,323.746 766,318.5C 767.36,315.977 769.193,313.977 771.5,312.5 Z"/></g>
<g><path style="opacity:1" fill="#070808" d="M 452.5,408.5 C 451.88,414.926 452.547,420.926 454.5,426.5C 453.698,434.422 453.198,442.422 453,450.5C 450.599,451.602 448.099,451.769 445.5,451C 444.748,450.329 444.414,449.496 444.5,448.5C 444.829,435.323 444.495,422.323 443.5,409.5C 442.448,409.649 441.448,409.483 440.5,409C 443.801,406.626 447.467,405.96 451.5,407C 452.056,407.383 452.389,407.883 452.5,408.5 Z"/></g>
<g><path style="opacity:1" fill="#090a0a" d="M 603.5,406.5 C 614.542,404.598 621.709,408.932 625,419.5C 627.411,428.743 626.745,437.743 623,446.5C 618.053,451.685 612.219,452.851 605.5,450C 599.014,443.02 597.847,435.186 602,426.5C 606.224,421.743 611.39,420.243 617.5,422C 616.38,417.844 614.38,414.178 611.5,411C 608.34,407.88 605.007,407.714 601.5,410.5C 601.167,410.167 600.833,409.833 600.5,409.5C 601.77,408.712 602.77,407.712 603.5,406.5 Z"/></g>
<g><path style="opacity:1" fill="#0b0d0d" d="M 933.5,406.5 C 937.007,405.994 940.174,406.66 943,408.5C 943.667,422.5 943.667,436.5 943,450.5C 940.333,451.833 937.667,451.833 935,450.5C 934.5,436.837 934.333,423.171 934.5,409.5C 929.548,409.81 929.214,408.81 933.5,406.5 Z"/></g>
<g><path style="opacity:1" fill="#0f1010" d="M 189.5,407.5 C 197.354,406.911 205.021,407.745 212.5,410C 219.238,415.952 218.905,421.619 211.5,427C 220.453,430.35 222.953,436.517 219,445.5C 217.062,448.106 214.562,449.939 211.5,451C 205.833,451.667 200.167,451.667 194.5,451C 192.667,450.5 191.5,449.333 191,447.5C 190.5,435.505 190.333,423.505 190.5,411.5C 187.351,411.211 184.351,411.711 181.5,413C 179.771,414.789 179.104,416.956 179.5,419.5C 181.575,419.302 183.575,419.135 185.5,419C 187.324,423.022 185.991,425.188 181.5,425.5C 176.46,425.094 174.626,422.428 176,417.5C 176.346,415.152 177.513,413.319 179.5,412C 182.834,410.317 186.167,408.817 189.5,407.5 Z"/></g>
<g><path style="opacity:1" fill="#474f4f" d="M 452.5,408.5 C 453.167,414.167 453.833,419.833 454.5,425.5C 454.5,425.833 454.5,426.167 454.5,426.5C 452.547,420.926 451.88,414.926 452.5,408.5 Z"/></g>
<g><path style="opacity:1" fill="#f9f9f9" d="M 200.5,410.5 C 204.182,409.725 206.682,411.059 208,414.5C 210.035,421.098 207.868,425.432 201.5,427.5C 210.538,431.07 213.038,437.403 209,446.5C 206.759,449.227 204.093,449.894 201,448.5C 200.5,435.838 200.333,423.171 200.5,410.5 Z"/></g>
<g><path style="opacity:1" fill="#111312" d="M 251.5,410.5 C 258.084,410.004 259.751,412.504 256.5,418C 249.686,418.704 248.019,416.204 251.5,410.5 Z"/></g>
<g><path style="opacity:1" fill="#111312" d="M 331.5,410.5 C 338.084,410.004 339.751,412.504 336.5,418C 329.686,418.704 328.019,416.204 331.5,410.5 Z"/></g>
<g><path style="opacity:1" fill="#a9b1af" d="M 443.5,409.5 C 444.495,422.323 444.829,435.323 444.5,448.5C 443.833,439.167 443.167,429.833 442.5,420.5C 442.5,419.833 442.5,419.167 442.5,418.5C 443.477,415.713 443.81,412.713 443.5,409.5 Z"/></g>
<g><path style="opacity:1" fill="#080909" d="M 442.5,418.5 C 442.5,419.167 442.5,419.833 442.5,420.5C 442.423,421.75 441.756,422.583 440.5,423C 438.19,423.497 435.857,423.663 433.5,423.5C 433.5,431.5 433.5,439.5 433.5,447.5C 435.722,447.822 437.556,447.155 439,445.5C 438.734,449.921 436.234,451.921 431.5,451.5C 428.185,452.016 426.018,450.683 425,447.5C 424.5,439.507 424.334,431.507 424.5,423.5C 423.325,423.719 422.325,423.386 421.5,422.5C 426.485,420.51 430.152,417.177 432.5,412.5C 433.484,415.428 433.817,418.428 433.5,421.5C 435.924,421.808 438.257,421.474 440.5,420.5C 437.867,419.116 437.867,417.782 440.5,416.5C 441.522,416.855 442.189,417.522 442.5,418.5 Z"/></g>
<g><path style="opacity:1" fill="#080909" d="M 713.5,412.5 C 715.388,414.988 716.055,417.988 715.5,421.5C 717.924,421.808 720.257,421.474 722.5,420.5C 719.867,419.116 719.867,417.782 722.5,416.5C 725.093,418.644 725.093,420.811 722.5,423C 720.19,423.497 717.857,423.663 715.5,423.5C 715.5,431.5 715.5,439.5 715.5,447.5C 717.722,447.822 719.556,447.155 721,445.5C 720.734,449.921 718.234,451.921 713.5,451.5C 710.185,452.016 708.018,450.683 707,447.5C 706.5,439.507 706.334,431.507 706.5,423.5C 705.325,423.719 704.325,423.386 703.5,422.5C 708.541,420.793 711.874,417.459 713.5,412.5 Z"/></g>
<g><path style="opacity:1" fill="#080909" d="M 987.5,412.5 C 989.388,414.988 990.055,417.988 989.5,421.5C 991.924,421.808 994.257,421.474 996.5,420.5C 993.867,419.116 993.867,417.782 996.5,416.5C 999.093,418.644 999.093,420.811 996.5,423C 994.19,423.497 991.857,423.663 989.5,423.5C 989.5,431.5 989.5,439.5 989.5,447.5C 991.722,447.822 993.556,447.155 995,445.5C 994.734,449.921 992.234,451.921 987.5,451.5C 984.675,451.881 982.509,450.881 981,448.5C 980.5,440.173 980.334,431.84 980.5,423.5C 979.325,423.719 978.325,423.386 977.5,422.5C 982.541,420.793 985.874,417.459 987.5,412.5 Z"/></g>
<g><path style="opacity:1" fill="#0d0e0e" d="M 319.5,415.5 C 322.59,414.83 324.257,415.997 324.5,419C 324.174,421.484 323.174,423.651 321.5,425.5C 325.399,440.271 319.733,446.604 304.5,444.5C 304.33,445.822 304.663,446.989 305.5,448C 311.65,448.624 317.65,449.791 323.5,451.5C 327.204,458.924 324.87,463.424 316.5,465C 311.5,465.667 306.5,465.667 301.5,465C 299.264,464.266 297.931,462.766 297.5,460.5C 298.406,458.253 299.739,456.253 301.5,454.5C 298.574,450.484 298.907,446.817 302.5,443.5C 297.611,437.221 297.277,430.721 301.5,424C 307.258,420.874 313.092,420.707 319,423.5C 321.051,421.191 320.884,419.024 318.5,417C 319.056,416.617 319.389,416.117 319.5,415.5 Z"/></g>
<g><path style="opacity:1" fill="#0d0e0e" d="M 399.5,415.5 C 402.59,414.83 404.257,415.997 404.5,419C 404.174,421.484 403.174,423.651 401.5,425.5C 405.399,440.271 399.733,446.604 384.5,444.5C 384.33,445.822 384.663,446.989 385.5,448C 391.65,448.624 397.65,449.791 403.5,451.5C 407.204,458.924 404.87,463.424 396.5,465C 391.5,465.667 386.5,465.667 381.5,465C 379.264,464.266 377.931,462.766 377.5,460.5C 378.406,458.253 379.739,456.253 381.5,454.5C 378.574,450.484 378.907,446.817 382.5,443.5C 377.611,437.221 377.277,430.721 381.5,424C 387.258,420.874 393.092,420.707 399,423.5C 401.051,421.191 400.884,419.024 398.5,417C 399.056,416.617 399.389,416.117 399.5,415.5 Z"/></g>
<g><path style="opacity:1" fill="#0d0e0e" d="M 538.5,415.5 C 541.59,414.83 543.257,415.997 543.5,419C 543.174,421.484 542.174,423.651 540.5,425.5C 544.399,440.271 538.733,446.604 523.5,444.5C 523.33,445.822 523.663,446.989 524.5,448C 530.65,448.624 536.65,449.791 542.5,451.5C 546.204,458.924 543.87,463.424 535.5,465C 530.5,465.667 525.5,465.667 520.5,465C 518.264,464.266 516.931,462.766 516.5,460.5C 517.406,458.253 518.739,456.253 520.5,454.5C 517.574,450.484 517.907,446.817 521.5,443.5C 516.611,437.221 516.277,430.721 520.5,424C 526.258,420.874 532.092,420.707 538,423.5C 540.051,421.191 539.884,419.024 537.5,417C 538.056,416.617 538.389,416.117 538.5,415.5 Z"/></g>
<g><path style="opacity:1" fill="#040505" d="M 245.5,422.5 C 245.5,424.167 245.5,425.833 245.5,427.5C 245.565,427.938 245.399,428.272 245,428.5C 241.801,425.871 238.801,426.204 236,429.5C 235.667,436.5 235.333,443.5 235,450.5C 232.599,451.602 230.099,451.769 227.5,451C 226.516,442.251 226.183,433.418 226.5,424.5C 221.78,424.775 221.446,423.941 225.5,422C 228.167,421.333 230.833,421.333 233.5,422C 234.893,423.171 235.727,424.671 236,426.5C 237.5,425 239,423.5 240.5,422C 242.387,421.22 244.054,421.387 245.5,422.5 Z"/></g>
<g><path style="opacity:1" fill="#010202" d="M 249.5,424.5 C 249.167,423.833 248.833,423.167 248.5,422.5C 252.231,420.905 255.731,421.238 259,423.5C 259.667,432.5 259.667,441.5 259,450.5C 256.333,451.833 253.667,451.833 251,450.5C 250.83,441.657 250.33,432.99 249.5,424.5 Z"/></g>
<g><path style="opacity:1" fill="#0a0b0b" d="M 266.5,421.5 C 269.187,421.336 271.854,421.503 274.5,422C 275.893,423.171 276.727,424.671 277,426.5C 279.95,421.662 284.117,420.329 289.5,422.5C 290.333,423.5 291.167,424.5 292,425.5C 294.747,434.678 293.747,443.344 289,451.5C 286.391,454.737 283.224,456.07 279.5,455.5C 282.848,452.655 284.348,448.988 284,444.5C 284.851,438.747 284.517,433.08 283,427.5C 280.724,424.936 278.724,425.27 277,428.5C 276.667,435.833 276.333,443.167 276,450.5C 273.599,451.602 271.099,451.769 268.5,451C 267.516,442.251 267.183,433.418 267.5,424.5C 262.548,424.81 262.214,423.81 266.5,421.5 Z"/></g>
<g><path style="opacity:1" fill="#030303" d="M 329.5,421.5 C 333.007,420.994 336.174,421.66 339,423.5C 339.667,432.5 339.667,441.5 339,450.5C 336.333,451.833 333.667,451.833 331,450.5C 330.5,441.84 330.334,433.173 330.5,424.5C 325.548,424.81 325.214,423.81 329.5,421.5 Z"/></g>
<g><path style="opacity:1" fill="#0a0b0b" d="M 346.5,421.5 C 349.187,421.336 351.854,421.503 354.5,422C 355.893,423.171 356.727,424.671 357,426.5C 359.95,421.662 364.117,420.329 369.5,422.5C 370.333,423.5 371.167,424.5 372,425.5C 374.747,434.678 373.747,443.344 369,451.5C 366.391,454.737 363.224,456.07 359.5,455.5C 362.848,452.655 364.348,448.988 364,444.5C 364.851,438.747 364.517,433.08 363,427.5C 360.724,424.936 358.724,425.27 357,428.5C 356.667,435.833 356.333,443.167 356,450.5C 353.599,451.602 351.099,451.769 348.5,451C 347.516,442.251 347.183,433.418 347.5,424.5C 342.548,424.81 342.214,423.81 346.5,421.5 Z"/></g>
<g><path style="opacity:1" fill="#0f1010" d="M 454.5,426.5 C 454.5,426.167 454.5,425.833 454.5,425.5C 457.249,421.829 460.916,420.663 465.5,422C 468.981,425.751 470.314,430.251 469.5,435.5C 470.921,446.011 466.755,453.011 457,456.5C 456.5,456.167 456,455.833 455.5,455.5C 457.527,454.307 459.027,452.64 460,450.5C 460.667,442.833 460.667,435.167 460,427.5C 458.444,425.365 456.611,425.032 454.5,426.5 Z"/></g>
<g><path style="opacity:1" fill="#0d0f0e" d="M 484.5,421.5 C 487.85,421.335 491.183,421.502 494.5,422C 497.875,423.029 499.042,425.196 498,428.5C 493.225,432.132 488.391,435.632 483.5,439C 486.085,447.377 491.252,449.544 499,445.5C 497.906,448.239 495.739,450.073 492.5,451C 478.417,452.241 472.584,445.741 475,431.5C 477.022,426.98 480.189,423.647 484.5,421.5 Z"/></g>
<g><path style="opacity:1" fill="#0b0c0c" d="M 552.5,421.5 C 556.182,421.335 559.848,421.501 563.5,422C 565.848,422.346 567.681,423.513 569,425.5C 570.429,432.719 570.929,440.053 570.5,447.5C 574.278,448.193 574.278,449.36 570.5,451C 566.795,452.223 563.795,451.39 561.5,448.5C 550.559,454.896 545.726,451.896 547,439.5C 550.472,435.893 554.639,433.393 559.5,432C 562.937,425.427 560.937,422.76 553.5,424C 553.043,424.414 552.709,424.914 552.5,425.5C 554.086,427.173 554.753,429.173 554.5,431.5C 552.801,431.66 551.134,431.494 549.5,431C 547.803,426.987 548.803,423.821 552.5,421.5 Z"/></g>
<g><path style="opacity:1" fill="#060707" d="M 577.5,421.5 C 580.187,421.336 582.854,421.503 585.5,422C 586.893,423.171 587.727,424.671 588,426.5C 589.5,425 591,423.5 592.5,422C 598.442,420.985 599.942,423.152 597,428.5C 593.801,425.871 590.801,426.204 588,429.5C 587.667,436.5 587.333,443.5 587,450.5C 584.333,451.833 581.667,451.833 579,450.5C 578.5,441.84 578.334,433.173 578.5,424.5C 573.548,424.81 573.214,423.81 577.5,421.5 Z"/></g>
<g><path style="opacity:1" fill="#0d0f0e" d="M 640.5,421.5 C 643.85,421.335 647.183,421.502 650.5,422C 653.875,423.029 655.042,425.196 654,428.5C 649.225,432.132 644.391,435.632 639.5,439C 642.085,447.377 647.252,449.544 655,445.5C 653.906,448.239 651.739,450.073 648.5,451C 634.417,452.241 628.584,445.741 631,431.5C 633.022,426.98 636.189,423.647 640.5,421.5 Z"/></g>
<g><path style="opacity:1" fill="#0a0b0b" d="M 659.5,421.5 C 662.187,421.336 664.854,421.503 667.5,422C 668.893,423.171 669.727,424.671 670,426.5C 672.95,421.662 677.117,420.329 682.5,422.5C 683.333,423.5 684.167,424.5 685,425.5C 687.747,434.678 686.747,443.344 682,451.5C 679.391,454.737 676.224,456.07 672.5,455.5C 675.848,452.655 677.348,448.988 677,444.5C 677.851,438.747 677.517,433.08 676,427.5C 673.724,424.936 671.724,425.27 670,428.5C 669.667,435.833 669.333,443.167 669,450.5C 666.599,451.602 664.099,451.769 661.5,451C 660.516,442.251 660.183,433.418 660.5,424.5C 655.548,424.81 655.214,423.81 659.5,421.5 Z"/></g>
<g><path style="opacity:1" fill="#0a0b0b" d="M 731.5,421.5 C 747.469,420.644 753.302,427.977 749,443.5C 745.345,450.738 739.512,453.238 731.5,451C 723.944,446.152 721.444,439.318 724,430.5C 725.642,426.7 728.142,423.7 731.5,421.5 Z"/></g>
<g><path style="opacity:1" fill="#0c0d0d" d="M 766.5,421.5 C 770.257,421.071 773.757,421.737 777,423.5C 780.598,430.637 783.598,437.97 786,445.5C 789.386,437.756 790.219,429.756 788.5,421.5C 790.167,421.5 791.833,421.5 793.5,421.5C 794.289,433.964 791.122,445.297 784,455.5C 778.507,462.666 771.341,465.499 762.5,464C 761.62,462.644 761.286,461.144 761.5,459.5C 763.681,459.284 765.347,460.117 766.5,462C 772.012,462.349 776.345,460.183 779.5,455.5C 776.696,445.588 773.196,435.921 769,426.5C 767.829,425.107 766.329,424.273 764.5,424C 765.381,423.292 766.047,422.458 766.5,421.5 Z"/></g>
<g><path style="opacity:1" fill="#0a0b0b" d="M 805.5,421.5 C 821.469,420.644 827.302,427.977 823,443.5C 819.345,450.738 813.512,453.238 805.5,451C 797.944,446.152 795.444,439.318 798,430.5C 799.642,426.7 802.142,423.7 805.5,421.5 Z"/></g>
<g><path style="opacity:1" fill="#090a0a" d="M 830.5,421.5 C 833.685,421.02 836.519,421.686 839,423.5C 839.333,431.167 839.667,438.833 840,446.5C 842.54,447.876 844.54,447.21 846,444.5C 846.5,438.175 846.666,431.842 846.5,425.5C 843.03,425.29 843.03,424.123 846.5,422C 849.23,421.272 851.897,421.438 854.5,422.5C 855.332,430.813 855.832,439.147 856,447.5C 857.008,447.982 858.175,448.148 859.5,448C 856.476,451.198 852.809,452.198 848.5,451C 847.299,450.097 846.465,448.931 846,447.5C 841.133,452.205 836.133,452.538 831,448.5C 830.5,440.841 830.334,433.174 830.5,425.5C 829.448,425.649 828.448,425.483 827.5,425C 828.71,423.961 829.71,422.794 830.5,421.5 Z"/></g>
<g><path style="opacity:1" fill="#060707" d="M 862.5,421.5 C 865.187,421.336 867.854,421.503 870.5,422C 871.893,423.171 872.727,424.671 873,426.5C 874.5,425 876,423.5 877.5,422C 883.442,420.985 884.942,423.152 882,428.5C 878.801,425.871 875.801,426.204 873,429.5C 872.667,436.5 872.333,443.5 872,450.5C 869.333,451.833 866.667,451.833 864,450.5C 863.5,441.84 863.334,433.173 863.5,424.5C 858.548,424.81 858.214,423.81 862.5,421.5 Z"/></g>
<g><path style="opacity:1" fill="#080909" d="M 900.5,421.5 C 904.603,420.769 908.103,421.769 911,424.5C 915.596,420.568 920.263,420.568 925,424.5C 929.664,432.488 929.664,440.488 925,448.5C 922.867,450.853 920.2,451.853 917,451.5C 914.648,451.695 912.648,451.028 911,449.5C 910.829,454.864 910.329,460.198 909.5,465.5C 906.709,467.04 904.209,466.706 902,464.5C 901.5,451.171 901.333,437.837 901.5,424.5C 896.548,424.81 896.214,423.81 900.5,421.5 Z"/></g>
<g><path style="opacity:1" fill="#0b0c0c" d="M 954.5,421.5 C 958.182,421.335 961.848,421.501 965.5,422C 967.848,422.346 969.681,423.513 971,425.5C 972.429,432.719 972.929,440.053 972.5,447.5C 976.278,448.193 976.278,449.36 972.5,451C 968.795,452.223 965.795,451.39 963.5,448.5C 952.559,454.896 947.726,451.896 949,439.5C 952.472,435.893 956.639,433.393 961.5,432C 964.937,425.427 962.937,422.76 955.5,424C 955.043,424.414 954.709,424.914 954.5,425.5C 956.086,427.173 956.753,429.173 956.5,431.5C 954.801,431.66 953.134,431.494 951.5,431C 949.803,426.987 950.803,423.821 954.5,421.5 Z"/></g>
<g><path style="opacity:1" fill="#0d0f0e" d="M 1007.5,421.5 C 1010.85,421.335 1014.18,421.502 1017.5,422C 1020.88,423.029 1022.04,425.196 1021,428.5C 1016.22,432.132 1011.39,435.632 1006.5,439C 1009.09,447.377 1014.25,449.544 1022,445.5C 1020.91,448.239 1018.74,450.073 1015.5,451C 1001.42,452.241 995.584,445.741 998,431.5C 1000.02,426.98 1003.19,423.647 1007.5,421.5 Z"/></g>
<g><path style="opacity:1" fill="#525959" d="M 245.5,422.5 C 246.5,423.833 247.5,423.833 248.5,422.5C 248.833,423.167 249.167,423.833 249.5,424.5C 248.5,424.5 247.5,424.5 246.5,424.5C 246.737,425.791 246.404,426.791 245.5,427.5C 245.5,425.833 245.5,424.167 245.5,422.5 Z"/></g>
<g><path style="opacity:1" fill="#eceded" d="M 309.5,423.5 C 311.592,423.561 313.092,424.561 314,426.5C 314.667,430.833 314.667,435.167 314,439.5C 312.522,442.993 310.522,443.326 308,440.5C 305.604,434.47 306.104,428.803 309.5,423.5 Z"/></g>
<g><path style="opacity:1" fill="#eceded" d="M 389.5,423.5 C 391.592,423.561 393.092,424.561 394,426.5C 394.667,430.833 394.667,435.167 394,439.5C 392.522,442.993 390.522,443.326 388,440.5C 385.604,434.47 386.104,428.803 389.5,423.5 Z"/></g>
<g><path style="opacity:1" fill="#eeefef" d="M 485.5,424.5 C 490.213,424.468 491.713,426.801 490,431.5C 483.857,437.614 481.857,436.28 484,427.5C 484.513,426.473 485.013,425.473 485.5,424.5 Z"/></g>
<g><path style="opacity:1" fill="#eceded" d="M 528.5,423.5 C 530.592,423.561 532.092,424.561 533,426.5C 533.667,430.833 533.667,435.167 533,439.5C 531.522,442.993 529.522,443.326 527,440.5C 524.604,434.47 525.104,428.803 528.5,423.5 Z"/></g>
<g><path style="opacity:1" fill="#f2f3f3" d="M 611.5,424.5 C 613.722,424.178 615.556,424.845 617,426.5C 617.667,432.167 617.667,437.833 617,443.5C 614.807,449.558 612.14,449.892 609,444.5C 608.333,439.167 608.333,433.833 609,428.5C 609.662,427.016 610.496,425.683 611.5,424.5 Z"/></g>
<g><path style="opacity:1" fill="#eeefef" d="M 641.5,424.5 C 646.213,424.468 647.713,426.801 646,431.5C 639.857,437.614 637.857,436.28 640,427.5C 640.513,426.473 641.013,425.473 641.5,424.5 Z"/></g>
<g><path style="opacity:1" fill="#f0f1f1" d="M 734.5,424.5 C 737.833,424.027 740,425.36 741,428.5C 741.979,434.983 741.479,441.316 739.5,447.5C 735.932,449.362 733.765,448.362 733,444.5C 731.962,437.628 732.462,430.962 734.5,424.5 Z"/></g>
<g><path style="opacity:1" fill="#f0f1f1" d="M 808.5,424.5 C 811.833,424.027 814,425.36 815,428.5C 815.979,434.983 815.479,441.316 813.5,447.5C 809.932,449.362 807.765,448.362 807,444.5C 805.962,437.628 806.462,430.962 808.5,424.5 Z"/></g>
<g><path style="opacity:1" fill="#eeefef" d="M 1008.5,424.5 C 1013.21,424.468 1014.71,426.801 1013,431.5C 1006.86,437.614 1004.86,436.28 1007,427.5C 1007.51,426.473 1008.01,425.473 1008.5,424.5 Z"/></g>
<g><path style="opacity:1" fill="#f8f8f8" d="M 912.5,424.5 C 914.903,424.393 916.736,425.393 918,427.5C 918.87,433.917 918.536,440.251 917,446.5C 915,449.167 913,449.167 911,446.5C 910.333,439.833 910.333,433.167 911,426.5C 911.717,425.956 912.217,425.289 912.5,424.5 Z"/></g>
<g><path style="opacity:1" fill="#ebeceb" d="M 557.5,434.5 C 558.822,434.33 559.989,434.663 561,435.5C 561.667,438.833 561.667,442.167 561,445.5C 559.556,447.155 557.722,447.822 555.5,447.5C 553.686,442.72 554.353,438.387 557.5,434.5 Z"/></g>
<g><path style="opacity:1" fill="#ebeceb" d="M 959.5,434.5 C 960.822,434.33 961.989,434.663 963,435.5C 963.667,438.833 963.667,442.167 963,445.5C 961.556,447.155 959.722,447.822 957.5,447.5C 955.686,442.72 956.353,438.387 959.5,434.5 Z"/></g>
<g><path style="opacity:1" fill="#dda15e" d="M 304.5,455.5 C 308.182,455.335 311.848,455.501 315.5,456C 319.5,458.333 319.5,460.667 315.5,463C 311.833,463.667 308.167,463.667 304.5,463C 301.914,460.506 301.914,458.006 304.5,455.5 Z"/></g>
<g><path style="opacity:1" fill="#dda15e" d="M 384.5,455.5 C 388.182,455.335 391.848,455.501 395.5,456C 399.5,458.333 399.5,460.667 395.5,463C 391.833,463.667 388.167,463.667 384.5,463C 381.914,460.506 381.914,458.006 384.5,455.5 Z"/></g>
<g><path style="opacity:1" fill="#dda15e" d="M 523.5,455.5 C 527.182,455.335 530.848,455.501 534.5,456C 538.5,458.333 538.5,460.667 534.5,463C 530.833,463.667 527.167,463.667 523.5,463C 520.914,460.506 520.914,458.006 523.5,455.5 Z"/></g>
<g><path style="opacity:1" fill="#dda15e" d="M 594.5,540.5 C 600.613,539.41 605.779,541.077 610,545.5C 611.599,560.112 611.932,574.778 611,589.5C 607.628,596.433 602.128,598.933 594.5,597C 591.272,595.437 589.105,592.937 588,589.5C 587.333,575.5 587.333,561.5 588,547.5C 589.694,544.642 591.861,542.309 594.5,540.5 Z"/></g>
<g><path style="opacity:1" fill="#dda15e" d="M 533.5,569.5 C 537.792,569.035 541.792,569.868 545.5,572C 555.734,581.564 565.234,591.731 574,602.5C 574.294,613.935 568.794,618.769 557.5,617C 546.298,607.465 536.131,596.965 527,585.5C 525.062,578.389 527.229,573.056 533.5,569.5 Z"/></g>
<g><path style="opacity:1" fill="#dda15e" d="M 657.5,569.5 C 670.782,569.613 675.282,575.946 671,588.5C 661.137,598.697 650.971,608.53 640.5,618C 628.005,618.505 623.172,612.672 626,600.5C 635.731,589.268 646.231,578.935 657.5,569.5 Z"/></g>
<g><path style="opacity:1" fill="#010101" d="M 573.5,686.5 C 568.388,690.285 563.055,690.452 557.5,687C 544.844,673.668 531.01,661.835 516,651.5C 515.333,698.167 515.333,744.833 516,791.5C 520,795.5 524,799.5 528,803.5C 533.128,808.608 533.795,814.275 530,820.5C 524.21,826.329 518.044,826.829 511.5,822C 492.917,802.415 473.917,783.082 454.5,764C 414.829,763.167 375.162,763.333 335.5,764.5C 365.755,831.922 414.755,880.422 482.5,910C 490.535,912.673 498.535,915.339 506.5,918C 511.082,921.397 513.082,925.897 512.5,931.5C 509.548,938.765 504.215,941.598 496.5,940C 421.955,915.12 365.122,868.62 326,800.5C 292.052,736.634 284.052,669.634 302,599.5C 306.106,594.793 311.273,591.959 317.5,591C 417.433,572.597 503.267,599.097 575,670.5C 578.546,676.219 578.046,681.552 573.5,686.5 Z"/></g>
<g><path style="opacity:1" fill="#020202" d="M 552.5,938.5 C 546.443,923.529 542.943,907.863 542,891.5C 536.807,823.892 553.64,762.559 592.5,707.5C 636.201,646.647 694.535,607.48 767.5,590C 805.231,582.416 842.898,582.749 880.5,591C 887.125,591.756 892.625,594.59 897,599.5C 921.126,705.858 894.292,797.025 816.5,873C 753.105,932.022 678.105,957.355 591.5,949C 581.018,947.753 570.685,945.753 560.5,943C 557.352,942.262 554.685,940.762 552.5,938.5 Z"/></g>
<g><path style="opacity:1" fill="#283618" d="M 409.5,610.5 C 409.831,635.339 409.498,660.006 408.5,684.5C 384.702,660.201 360.702,636.035 336.5,612C 360.734,607.98 385.067,607.48 409.5,610.5 Z"/></g>
<g><path style="opacity:1" fill="#606c38" d="M 775.5,698.5 C 775.175,669.76 775.509,641.093 776.5,612.5C 805.13,607.352 833.796,607.185 862.5,612C 833.632,641.035 804.632,669.868 775.5,698.5 Z"/></g>
<g><path style="opacity:1" fill="#dda15e" d="M 776.5,612.5 C 775.509,641.093 775.175,669.76 775.5,698.5C 774.825,685.073 774.492,670.907 774.5,656C 774.501,641.151 775.167,626.651 776.5,612.5 Z"/></g>
<g><path style="opacity:1" fill="#283618" d="M 433.5,615.5 C 453.412,619.953 472.412,626.953 490.5,636.5C 491.667,679.829 491.833,723.163 491,766.5C 472,747.5 453,728.5 434,709.5C 433.5,678.168 433.333,646.835 433.5,615.5 Z"/></g>
<g><path style="opacity:1" fill="#606c38" d="M 671.5,803.5 C 670.501,756.336 670.168,709.003 670.5,661.5C 693.978,642.588 720.312,628.588 749.5,619.5C 750.667,654.495 750.833,689.495 750,724.5C 723.605,750.728 697.438,777.062 671.5,803.5 Z"/></g>
<g><path style="opacity:1" fill="#283618" d="M 319.5,629.5 C 356.299,665.799 392.965,702.299 429.5,739C 395.167,739.667 360.833,739.667 326.5,739C 316.102,703.062 313.769,666.562 319.5,629.5 Z"/></g>
<g><path style="opacity:1" fill="#606c38" d="M 878.5,629.5 C 886.957,676.986 881.624,722.986 862.5,767.5C 821.837,768.667 781.171,768.833 740.5,768C 786.701,721.965 832.701,675.799 878.5,629.5 Z"/></g>
<g><path style="opacity:1" fill="#283618" d="M 573.5,686.5 C 580.058,693.27 586.391,700.27 592.5,707.5C 553.64,762.559 536.807,823.892 542,891.5C 542.943,907.863 546.443,923.529 552.5,938.5C 539.043,936.813 525.71,934.479 512.5,931.5C 513.082,925.897 511.082,921.397 506.5,918C 498.535,915.339 490.535,912.673 482.5,910C 414.755,880.422 365.755,831.922 335.5,764.5C 375.162,763.333 414.829,763.167 454.5,764C 473.917,783.082 492.917,802.415 511.5,822C 518.044,826.829 524.21,826.329 530,820.5C 533.795,814.275 533.128,808.608 528,803.5C 524,799.5 520,795.5 516,791.5C 515.333,744.833 515.333,698.167 516,651.5C 531.01,661.835 544.844,673.668 557.5,687C 563.055,690.452 568.388,690.285 573.5,686.5 Z"/></g>
<g><path style="opacity:1" fill="#dda15e" d="M 409.5,610.5 C 410.829,635.337 410.829,660.337 409.5,685.5C 408.893,685.376 408.56,685.043 408.5,684.5C 409.498,660.006 409.831,635.339 409.5,610.5 Z"/></g>
<g><path style="opacity:1" fill="#dda15e" d="M 670.5,661.5 C 670.168,709.003 670.501,756.336 671.5,803.5C 671.44,804.043 671.107,804.376 670.5,804.5C 669.169,756.668 669.169,709.002 670.5,661.5 Z"/></g>
<g><path style="opacity:1" fill="#606c38" d="M 645.5,682.5 C 646.665,731.332 646.832,780.332 646,829.5C 620.333,855.167 594.667,880.833 569,906.5C 556.753,818.736 582.253,744.07 645.5,682.5 Z"/></g>
<g><path style="opacity:1" fill="#606c38" d="M 792.5,861.5 C 744.33,861.832 696.33,861.499 648.5,860.5C 670.632,837.868 692.965,815.368 715.5,793C 760.17,792.167 804.837,792.333 849.5,793.5C 834.151,819.187 815.151,841.853 792.5,861.5 Z"/></g>
<g><path style="opacity:1" fill="#dda15e" d="M 411.5,815.5 C 423.328,813.835 428.828,818.835 428,830.5C 424.858,837.939 419.358,840.439 411.5,838C 405.092,834.677 402.925,829.511 405,822.5C 406.694,819.642 408.861,817.309 411.5,815.5 Z"/></g>
<g><path style="opacity:1" fill="#dda15e" d="M 442.5,841.5 C 445.518,841.335 448.518,841.502 451.5,842C 472.923,857.378 496.256,869.045 521.5,877C 527.993,882.081 529.16,888.248 525,895.5C 520.778,899.052 515.945,900.219 510.5,899C 483.252,890.129 458.419,876.963 436,859.5C 432.888,851.42 435.055,845.42 442.5,841.5 Z"/></g>
<g><path style="opacity:1" fill="#dda15e" d="M 648.5,860.5 C 696.33,861.499 744.33,861.832 792.5,861.5C 744.332,862.831 695.998,862.831 647.5,861.5C 647.624,860.893 647.957,860.56 648.5,860.5 Z"/></g>
<g><path style="opacity:1" fill="#dda15e" d="M 622.5,886.5 C 668.665,885.335 714.998,885.168 761.5,886C 760.956,886.717 760.289,887.217 759.5,887.5C 714.003,886.501 668.336,886.168 622.5,886.5 Z"/></g>
<g><path style="opacity:1" fill="#606c38" d="M 622.5,886.5 C 668.336,886.168 714.003,886.501 759.5,887.5C 706.325,921.251 648.658,933.085 586.5,923C 598.729,910.938 610.729,898.772 622.5,886.5 Z"/></g>
</svg>
