<?xml version="1.0" encoding="UTF-8"?>
<svg xmlns="http://www.w3.org/2000/svg" xmlns:xlink="http://www.w3.org/1999/xlink" width="100px" height="100px" viewBox="0 0 100 100" version="1.1">
<g id="surface1">
<path style=" stroke:none;fill-rule:evenodd;fill:rgb(99.607843%,98.039216%,87.843137%);fill-opacity:1;" d="M -0.0390625 -0.0390625 C 33.289062 -0.0390625 66.625 -0.0390625 99.960938 -0.0390625 C 99.960938 33.289062 99.960938 66.625 99.960938 99.960938 C 66.625 99.960938 33.289062 99.960938 -0.0390625 99.960938 C -0.0390625 66.625 -0.0390625 33.289062 -0.0390625 -0.0390625 Z M -0.0390625 -0.0390625 "/>
<path style=" stroke:none;fill-rule:evenodd;fill:rgb(73.72549%,42.352941%,14.509804%);fill-opacity:1;" d="M 28.789062 25.375 C 29.847656 25.375 30.902344 25.375 31.960938 25.375 C 31.960938 25.515625 31.960938 25.652344 31.960938 25.789062 C 31.710938 25.789062 31.460938 25.789062 31.210938 25.789062 C 31.222656 27.042969 31.210938 28.292969 31.164062 29.539062 C 30.949219 30.59375 30.324219 31.273438 29.289062 31.585938 C 28.65625 31.710938 28.019531 31.738281 27.375 31.664062 C 27.132812 31.632812 26.914062 31.546875 26.710938 31.414062 C 26.589844 31.152344 26.617188 30.902344 26.789062 30.664062 C 26.902344 30.609375 27.015625 30.609375 27.125 30.664062 C 27.390625 31.3125 27.863281 31.535156 28.539062 31.335938 C 29.09375 31.144531 29.4375 30.769531 29.585938 30.210938 C 29.6875 29.828125 29.726562 29.4375 29.710938 29.039062 C 26.867188 29.378906 25.390625 28.117188 25.289062 25.25 C 25.339844 23.007812 26.453125 21.648438 28.625 21.164062 C 29.21875 21.109375 29.800781 21.164062 30.375 21.335938 C 31.390625 21.765625 31.554688 22.402344 30.875 23.25 C 30.515625 23.371094 30.253906 23.273438 30.085938 22.960938 C 30.023438 22.59375 29.9375 22.230469 29.835938 21.875 C 29.421875 21.5625 28.992188 21.546875 28.539062 21.835938 C 27.515625 22.800781 27.046875 23.996094 27.125 25.414062 C 27.125 26.277344 27.304688 27.097656 27.664062 27.875 C 28.179688 28.523438 28.832031 28.71875 29.625 28.460938 C 29.710938 27.570312 29.734375 26.679688 29.710938 25.789062 C 29.402344 25.789062 29.097656 25.789062 28.789062 25.789062 C 28.789062 25.652344 28.789062 25.515625 28.789062 25.375 Z M 28.789062 25.375 "/>
<path style=" stroke:none;fill-rule:evenodd;fill:rgb(86.666667%,63.137255%,36.862745%);fill-opacity:1;" d="M 59.625 21.625 C 59.367188 21.542969 59.085938 21.515625 58.789062 21.539062 C 58.789062 22.679688 58.789062 23.820312 58.789062 24.960938 C 59.515625 24.960938 60.234375 24.960938 60.960938 24.960938 C 60.960938 25.097656 60.960938 25.234375 60.960938 25.375 C 60.234375 25.375 59.515625 25.375 58.789062 25.375 C 58.765625 26.222656 58.792969 27.054688 58.875 27.875 C 59.078125 28.3125 59.429688 28.476562 59.914062 28.375 C 60.53125 28.367188 61.101562 28.199219 61.625 27.875 C 61.757812 27.921875 61.800781 28 61.75 28.125 C 60.570312 29.140625 59.25 29.375 57.789062 28.835938 C 57.445312 28.601562 57.210938 28.28125 57.085938 27.875 C 57.039062 27.042969 57.027344 26.210938 57.039062 25.375 C 56.765625 25.375 56.484375 25.375 56.210938 25.375 C 56.210938 25.234375 56.210938 25.097656 56.210938 24.960938 C 56.484375 24.960938 56.765625 24.960938 57.039062 24.960938 C 57.039062 23.847656 57.039062 22.734375 57.039062 21.625 C 56.261719 21.664062 55.609375 21.972656 55.085938 22.539062 C 54.828125 23.46875 55.125 23.691406 55.960938 23.210938 C 56.132812 23.21875 56.257812 23.304688 56.335938 23.460938 C 56.453125 24.15625 56.164062 24.515625 55.460938 24.539062 C 54.738281 24.476562 54.375 24.070312 54.375 23.335938 C 54.410156 22.71875 54.6875 22.242188 55.210938 21.914062 C 55.921875 21.484375 56.703125 21.234375 57.539062 21.164062 C 58.796875 21.09375 60.046875 21.121094 61.289062 21.25 C 61.46875 21.289062 61.554688 21.398438 61.539062 21.585938 C 61.53125 21.78125 61.449219 21.933594 61.289062 22.039062 C 60.777344 21.734375 60.222656 21.59375 59.625 21.625 Z M 59.625 21.625 "/>
<path style=" stroke:none;fill-rule:evenodd;fill:rgb(85.098039%,85.882353%,85.490196%);fill-opacity:1;" d="M 59.625 21.625 C 59.375 21.625 59.125 21.625 58.875 21.625 C 58.875 22.710938 58.875 23.789062 58.875 24.875 C 59.585938 24.847656 60.28125 24.875 60.960938 24.960938 C 60.234375 24.960938 59.515625 24.960938 58.789062 24.960938 C 58.789062 23.820312 58.789062 22.679688 58.789062 21.539062 C 59.085938 21.515625 59.367188 21.542969 59.625 21.625 Z M 59.625 21.625 "/>
<path style=" stroke:none;fill-rule:evenodd;fill:rgb(1.568627%,1.568627%,1.568627%);fill-opacity:1;" d="M 69.210938 22.125 C 69.347656 22.125 69.484375 22.125 69.625 22.125 C 69.597656 22.640625 69.625 23.140625 69.710938 23.625 C 70.101562 23.648438 70.492188 23.621094 70.875 23.539062 C 70.902344 23.515625 70.929688 23.484375 70.960938 23.460938 C 70.636719 23.367188 70.554688 23.171875 70.710938 22.875 C 70.914062 22.757812 71.09375 22.785156 71.25 22.960938 C 71.410156 23.449219 71.257812 23.796875 70.789062 24 C 70.40625 24.039062 70.015625 24.054688 69.625 24.039062 C 69.609375 25.375 69.625 26.710938 69.664062 28.039062 C 69.675781 28.289062 69.800781 28.398438 70.039062 28.375 C 70.15625 28.367188 70.269531 28.335938 70.375 28.289062 C 70.460938 28.152344 70.570312 28.039062 70.710938 27.960938 C 70.710938 28.320312 70.546875 28.609375 70.210938 28.835938 C 69.335938 29.34375 68.628906 29.195312 68.085938 28.375 C 68.042969 28.265625 68.03125 28.15625 68.039062 28.039062 C 68.039062 26.679688 68.039062 25.320312 68.039062 23.960938 C 67.847656 23.960938 67.652344 23.960938 67.460938 23.960938 C 67.460938 23.847656 67.460938 23.734375 67.460938 23.625 C 68.351562 23.484375 68.933594 22.984375 69.210938 22.125 Z M 69.210938 22.125 "/>
<path style=" stroke:none;fill-rule:evenodd;fill:rgb(48.235294%,51.372549%,51.372549%);fill-opacity:1;" d="M 69.210938 22.125 C 69.355469 22.046875 69.523438 22.015625 69.710938 22.039062 C 69.710938 22.570312 69.710938 23.097656 69.710938 23.625 C 69.625 23.140625 69.597656 22.640625 69.625 22.125 C 69.484375 22.125 69.347656 22.125 69.210938 22.125 Z M 69.210938 22.125 "/>
<path style=" stroke:none;fill-rule:evenodd;fill:rgb(1.176471%,1.176471%,1.176471%);fill-opacity:1;" d="M 33.125 23.539062 C 33.964844 23.421875 34.421875 23.785156 34.5 24.625 C 34.789062 24.222656 35.140625 23.875 35.539062 23.585938 C 35.847656 23.5 36.109375 23.566406 36.335938 23.789062 C 36.398438 24.148438 36.386719 24.492188 36.289062 24.835938 C 36.117188 24.832031 35.980469 24.75 35.875 24.585938 C 35.324219 24.515625 34.867188 24.699219 34.5 25.125 C 34.472656 26.347656 34.445312 27.570312 34.414062 28.789062 C 34.136719 29.101562 33.789062 29.195312 33.375 29.085938 C 33.171875 29.058594 33.019531 28.960938 32.914062 28.789062 C 32.890625 27.289062 32.859375 25.789062 32.835938 24.289062 C 32.789062 24.25 32.75 24.210938 32.710938 24.164062 C 32.519531 24.148438 32.351562 24.132812 32.210938 24.125 C 32.476562 23.867188 32.78125 23.671875 33.125 23.539062 Z M 33.125 23.539062 "/>
<path style=" stroke:none;fill-rule:evenodd;fill:rgb(2.745098%,3.137255%,3.137255%);fill-opacity:1;" d="M 38.789062 23.539062 C 39.5 23.421875 40.125 23.585938 40.664062 24.039062 C 40.960938 24.476562 40.921875 24.882812 40.539062 25.25 C 39.796875 25.671875 39.0625 26.101562 38.335938 26.539062 C 38.359375 27.875 39.039062 28.46875 40.375 28.335938 C 40.609375 28.203125 40.835938 28.046875 41.039062 27.875 C 41.070312 27.914062 41.097656 27.960938 41.125 28 C 40.167969 29.195312 39 29.445312 37.625 28.75 C 36.71875 27.96875 36.367188 26.984375 36.585938 25.789062 C 36.945312 24.664062 37.679688 23.914062 38.789062 23.539062 Z M 38.789062 23.539062 "/>
<path style=" stroke:none;fill-rule:evenodd;fill:rgb(2.745098%,3.137255%,3.137255%);fill-opacity:1;" d="M 43.710938 23.539062 C 44.417969 23.421875 45.042969 23.585938 45.585938 24.039062 C 45.878906 24.476562 45.835938 24.882812 45.460938 25.25 C 44.714844 25.671875 43.976562 26.101562 43.25 26.539062 C 43.273438 27.875 43.957031 28.46875 45.289062 28.335938 C 45.53125 28.203125 45.75 28.046875 45.960938 27.875 C 45.984375 27.914062 46.015625 27.960938 46.039062 28 C 45.085938 29.195312 43.917969 29.445312 42.539062 28.75 C 41.632812 27.96875 41.289062 26.984375 41.5 25.789062 C 41.863281 24.664062 42.601562 23.914062 43.710938 23.539062 Z M 43.710938 23.539062 "/>
<path style=" stroke:none;fill-rule:evenodd;fill:rgb(1.568627%,1.568627%,1.568627%);fill-opacity:1;" d="M 47.125 23.539062 C 47.945312 23.398438 48.402344 23.734375 48.5 24.539062 C 49.085938 23.578125 49.875 23.34375 50.875 23.835938 C 51.050781 23.976562 51.175781 24.15625 51.25 24.375 C 51.765625 26.007812 51.597656 27.5625 50.75 29.039062 C 50.285156 29.601562 49.6875 29.875 48.960938 29.875 C 48.960938 29.789062 48.960938 29.710938 48.960938 29.625 C 49.1875 29.605469 49.367188 29.492188 49.5 29.289062 C 49.820312 28.445312 49.945312 27.570312 49.875 26.664062 C 49.882812 26.0625 49.835938 25.46875 49.75 24.875 C 49.59375 24.414062 49.304688 24.289062 48.875 24.5 C 48.71875 24.628906 48.59375 24.78125 48.5 24.960938 C 48.484375 26.265625 48.445312 27.570312 48.375 28.875 C 47.953125 29.179688 47.507812 29.203125 47.039062 28.960938 C 46.984375 28.914062 46.941406 28.859375 46.914062 28.789062 C 46.890625 27.289062 46.859375 25.789062 46.835938 24.289062 C 46.789062 24.25 46.75 24.210938 46.710938 24.164062 C 46.519531 24.148438 46.351562 24.132812 46.210938 24.125 C 46.476562 23.867188 46.78125 23.671875 47.125 23.539062 Z M 47.125 23.539062 "/>
<path style=" stroke:none;fill-rule:evenodd;fill:rgb(1.960784%,2.352941%,2.352941%);fill-opacity:1;" d="M 63.960938 23.539062 C 64.703125 23.46875 65.398438 23.625 66.039062 24 C 66.195312 24.128906 66.320312 24.28125 66.414062 24.460938 C 66.523438 25.757812 66.578125 27.0625 66.585938 28.375 C 66.800781 28.40625 67.007812 28.40625 67.210938 28.375 C 66.640625 29.152344 65.960938 29.289062 65.164062 28.789062 C 65.105469 28.648438 65.035156 28.507812 64.960938 28.375 C 64.457031 28.984375 63.820312 29.21875 63.039062 29.085938 C 62.316406 28.703125 62.023438 28.105469 62.164062 27.289062 C 62.304688 26.902344 62.542969 26.582031 62.875 26.335938 C 63.382812 26.0625 63.910156 25.839844 64.460938 25.664062 C 65.078125 25.164062 65.101562 24.632812 64.539062 24.085938 C 64.117188 23.90625 63.714844 23.945312 63.335938 24.210938 C 63.234375 24.484375 63.328125 24.640625 63.625 24.664062 C 63.84375 24.933594 63.816406 25.183594 63.539062 25.414062 C 62.667969 25.515625 62.375 25.140625 62.664062 24.289062 C 63.011719 23.875 63.441406 23.625 63.960938 23.539062 Z M 63.960938 23.539062 "/>
<path style=" stroke:none;fill-rule:evenodd;fill:rgb(2.352941%,2.745098%,2.745098%);fill-opacity:1;" d="M 72.539062 23.539062 C 73.21875 23.460938 73.816406 23.628906 74.335938 24.039062 C 74.675781 24.863281 74.425781 25.171875 73.585938 24.960938 C 73.527344 24.820312 73.527344 24.679688 73.585938 24.539062 C 73.945312 24.375 73.960938 24.195312 73.625 24 C 72.789062 23.949219 72.550781 24.296875 72.914062 25.039062 C 73.59375 25.632812 74.175781 26.300781 74.664062 27.039062 C 74.867188 28.414062 74.265625 29.109375 72.875 29.125 C 72.117188 29.109375 71.535156 28.789062 71.125 28.164062 C 71.152344 28.125 71.179688 28.085938 71.210938 28.039062 C 71.496094 28.296875 71.828125 28.460938 72.210938 28.539062 C 72.875 28.527344 73.167969 28.195312 73.085938 27.539062 C 72.671875 26.992188 72.226562 26.460938 71.75 25.960938 C 70.960938 24.789062 71.222656 23.984375 72.539062 23.539062 Z M 72.539062 23.539062 "/>
<path style=" stroke:none;fill-rule:evenodd;fill:rgb(76.078431%,76.862745%,76.862745%);fill-opacity:1;" d="M 67.460938 23.960938 C 67.652344 23.960938 67.847656 23.960938 68.039062 23.960938 C 68.039062 25.320312 68.039062 26.679688 68.039062 28.039062 C 67.960938 26.722656 67.929688 25.390625 67.960938 24.039062 C 67.773438 24.066406 67.605469 24.039062 67.460938 23.960938 Z M 67.460938 23.960938 "/>
<path style=" stroke:none;fill-rule:evenodd;fill:rgb(96.862745%,96.862745%,96.862745%);fill-opacity:1;" d="M 38.710938 24.125 C 39.132812 24.035156 39.398438 24.203125 39.5 24.625 C 39.554688 24.875 39.554688 25.125 39.5 25.375 C 39.117188 25.65625 38.714844 25.90625 38.289062 26.125 C 38.09375 25.382812 38.234375 24.710938 38.710938 24.125 Z M 38.710938 24.125 "/>
<path style=" stroke:none;fill-rule:evenodd;fill:rgb(96.862745%,96.862745%,96.862745%);fill-opacity:1;" d="M 43.625 24.125 C 44.050781 24.035156 44.3125 24.203125 44.414062 24.625 C 44.472656 24.875 44.472656 25.125 44.414062 25.375 C 44.035156 25.65625 43.632812 25.90625 43.210938 26.125 C 43.007812 25.382812 43.148438 24.710938 43.625 24.125 Z M 43.625 24.125 "/>
<path style=" stroke:none;fill-rule:evenodd;fill:rgb(29.411765%,32.156863%,32.156863%);fill-opacity:1;" d="M 28.789062 25.375 C 29.859375 25.292969 30.945312 25.265625 32.039062 25.289062 C 32.066406 25.476562 32.039062 25.644531 31.960938 25.789062 C 31.960938 25.652344 31.960938 25.515625 31.960938 25.375 C 30.902344 25.375 29.847656 25.375 28.789062 25.375 Z M 28.789062 25.375 "/>
<path style=" stroke:none;fill-rule:evenodd;fill:rgb(80.784314%,81.960784%,81.568627%);fill-opacity:1;" d="M 60.960938 25.375 C 60.28125 25.457031 59.585938 25.484375 58.875 25.460938 C 58.875 26.265625 58.875 27.070312 58.875 27.875 C 58.792969 27.054688 58.765625 26.222656 58.789062 25.375 C 59.515625 25.375 60.234375 25.375 60.960938 25.375 Z M 60.960938 25.375 "/>
<path style=" stroke:none;fill-rule:evenodd;fill:rgb(95.294118%,95.686275%,95.686275%);fill-opacity:1;" d="M 64.289062 26.039062 C 64.53125 26.003906 64.738281 26.0625 64.914062 26.210938 C 64.972656 26.734375 64.972656 27.265625 64.914062 27.789062 C 64.792969 28.125 64.554688 28.316406 64.210938 28.375 C 63.960938 28.300781 63.808594 28.132812 63.75 27.875 C 63.679688 27.421875 63.707031 26.976562 63.835938 26.539062 C 63.945312 26.332031 64.101562 26.164062 64.289062 26.039062 Z M 64.289062 26.039062 "/>
<path style=" stroke:none;fill-rule:evenodd;fill:rgb(2.745098%,3.137255%,3.137255%);fill-opacity:1;" d="M 37.710938 34.039062 C 37.65625 34.578125 37.710938 35.078125 37.875 35.539062 C 37.808594 36.203125 37.765625 36.867188 37.75 37.539062 C 37.550781 37.632812 37.34375 37.648438 37.125 37.585938 C 37.0625 37.527344 37.035156 37.457031 37.039062 37.375 C 37.070312 36.277344 37.039062 35.195312 36.960938 34.125 C 36.871094 34.136719 36.789062 34.125 36.710938 34.085938 C 36.984375 33.882812 37.289062 33.828125 37.625 33.914062 C 37.671875 33.949219 37.699219 33.992188 37.710938 34.039062 Z M 37.710938 34.039062 "/>
<path style=" stroke:none;fill-rule:evenodd;fill:rgb(3.529412%,3.921569%,3.921569%);fill-opacity:1;" d="M 50.289062 33.875 C 51.210938 33.71875 51.808594 34.078125 52.085938 34.960938 C 52.285156 35.726562 52.226562 36.476562 51.914062 37.210938 C 51.503906 37.640625 51.015625 37.738281 50.460938 37.5 C 49.917969 36.917969 49.820312 36.265625 50.164062 35.539062 C 50.519531 35.144531 50.949219 35.019531 51.460938 35.164062 C 51.367188 34.820312 51.199219 34.515625 50.960938 34.25 C 50.695312 33.992188 50.417969 33.976562 50.125 34.210938 C 50.097656 34.179688 50.070312 34.152344 50.039062 34.125 C 50.148438 34.058594 50.230469 33.976562 50.289062 33.875 Z M 50.289062 33.875 "/>
<path style=" stroke:none;fill-rule:evenodd;fill:rgb(4.313725%,5.098039%,5.098039%);fill-opacity:1;" d="M 77.789062 33.875 C 78.085938 33.832031 78.347656 33.890625 78.585938 34.039062 C 78.640625 35.210938 78.640625 36.375 78.585938 37.539062 C 78.359375 37.652344 78.140625 37.652344 77.914062 37.539062 C 77.875 36.402344 77.859375 35.265625 77.875 34.125 C 77.460938 34.148438 77.433594 34.070312 77.789062 33.875 Z M 77.789062 33.875 "/>
<path style=" stroke:none;fill-rule:evenodd;fill:rgb(5.882353%,6.27451%,6.27451%);fill-opacity:1;" d="M 15.789062 33.960938 C 16.445312 33.910156 17.085938 33.976562 17.710938 34.164062 C 18.269531 34.664062 18.242188 35.132812 17.625 35.585938 C 18.371094 35.863281 18.578125 36.375 18.25 37.125 C 18.085938 37.34375 17.882812 37.492188 17.625 37.585938 C 17.152344 37.640625 16.679688 37.640625 16.210938 37.585938 C 16.054688 37.539062 15.960938 37.445312 15.914062 37.289062 C 15.875 36.292969 15.859375 35.292969 15.875 34.289062 C 15.613281 34.265625 15.363281 34.308594 15.125 34.414062 C 14.980469 34.566406 14.925781 34.746094 14.960938 34.960938 C 15.132812 34.941406 15.296875 34.929688 15.460938 34.914062 C 15.609375 35.25 15.5 35.429688 15.125 35.460938 C 14.703125 35.421875 14.554688 35.203125 14.664062 34.789062 C 14.695312 34.59375 14.792969 34.445312 14.960938 34.335938 C 15.234375 34.195312 15.515625 34.070312 15.789062 33.960938 Z M 15.789062 33.960938 "/>
<path style=" stroke:none;fill-rule:evenodd;fill:rgb(27.843137%,30.980392%,30.980392%);fill-opacity:1;" d="M 37.710938 34.039062 C 37.765625 34.515625 37.820312 34.984375 37.875 35.460938 C 37.875 35.484375 37.875 35.515625 37.875 35.539062 C 37.710938 35.078125 37.65625 34.578125 37.710938 34.039062 Z M 37.710938 34.039062 "/>
<path style=" stroke:none;fill-rule:evenodd;fill:rgb(97.647059%,97.647059%,97.647059%);fill-opacity:1;" d="M 16.710938 34.210938 C 17.015625 34.144531 17.222656 34.257812 17.335938 34.539062 C 17.5 35.09375 17.320312 35.453125 16.789062 35.625 C 17.546875 35.921875 17.753906 36.453125 17.414062 37.210938 C 17.230469 37.4375 17.007812 37.492188 16.75 37.375 C 16.710938 36.320312 16.695312 35.265625 16.710938 34.210938 Z M 16.710938 34.210938 "/>
<path style=" stroke:none;fill-rule:evenodd;fill:rgb(6.666667%,7.45098%,7.058824%);fill-opacity:1;" d="M 20.960938 34.210938 C 21.507812 34.167969 21.648438 34.375 21.375 34.835938 C 20.804688 34.890625 20.667969 34.683594 20.960938 34.210938 Z M 20.960938 34.210938 "/>
<path style=" stroke:none;fill-rule:evenodd;fill:rgb(6.666667%,7.45098%,7.058824%);fill-opacity:1;" d="M 27.625 34.210938 C 28.171875 34.167969 28.3125 34.375 28.039062 34.835938 C 27.476562 34.890625 27.335938 34.683594 27.625 34.210938 Z M 27.625 34.210938 "/>
<path style=" stroke:none;fill-rule:evenodd;fill:rgb(66.27451%,69.411765%,68.627451%);fill-opacity:1;" d="M 36.960938 34.125 C 37.039062 35.195312 37.070312 36.277344 37.039062 37.375 C 36.984375 36.597656 36.929688 35.820312 36.875 35.039062 C 36.875 34.984375 36.875 34.929688 36.875 34.875 C 36.957031 34.640625 36.984375 34.390625 36.960938 34.125 Z M 36.960938 34.125 "/>
<path style=" stroke:none;fill-rule:evenodd;fill:rgb(3.137255%,3.529412%,3.529412%);fill-opacity:1;" d="M 36.875 34.875 C 36.875 34.929688 36.875 34.984375 36.875 35.039062 C 36.867188 35.148438 36.8125 35.214844 36.710938 35.25 C 36.515625 35.289062 36.320312 35.304688 36.125 35.289062 C 36.125 35.960938 36.125 36.625 36.125 37.289062 C 36.3125 37.320312 36.460938 37.265625 36.585938 37.125 C 36.5625 37.492188 36.351562 37.660156 35.960938 37.625 C 35.679688 37.667969 35.5 37.554688 35.414062 37.289062 C 35.375 36.625 35.359375 35.960938 35.375 35.289062 C 35.277344 35.3125 35.195312 35.28125 35.125 35.210938 C 35.539062 35.042969 35.84375 34.765625 36.039062 34.375 C 36.125 34.617188 36.152344 34.867188 36.125 35.125 C 36.328125 35.148438 36.523438 35.125 36.710938 35.039062 C 36.488281 34.925781 36.488281 34.8125 36.710938 34.710938 C 36.792969 34.738281 36.851562 34.792969 36.875 34.875 Z M 36.875 34.875 "/>
<path style=" stroke:none;fill-rule:evenodd;fill:rgb(3.137255%,3.529412%,3.529412%);fill-opacity:1;" d="M 59.460938 34.375 C 59.617188 34.582031 59.671875 34.832031 59.625 35.125 C 59.828125 35.148438 60.023438 35.125 60.210938 35.039062 C 59.988281 34.925781 59.988281 34.8125 60.210938 34.710938 C 60.421875 34.886719 60.421875 35.070312 60.210938 35.25 C 60.015625 35.289062 59.820312 35.304688 59.625 35.289062 C 59.625 35.960938 59.625 36.625 59.625 37.289062 C 59.8125 37.320312 59.960938 37.265625 60.085938 37.125 C 60.0625 37.492188 59.851562 37.660156 59.460938 37.625 C 59.179688 37.667969 59 37.554688 58.914062 37.289062 C 58.875 36.625 58.859375 35.960938 58.875 35.289062 C 58.777344 35.3125 58.695312 35.28125 58.625 35.210938 C 59.046875 35.066406 59.320312 34.789062 59.460938 34.375 Z M 59.460938 34.375 "/>
<path style=" stroke:none;fill-rule:evenodd;fill:rgb(3.137255%,3.529412%,3.529412%);fill-opacity:1;" d="M 82.289062 34.375 C 82.449219 34.582031 82.503906 34.832031 82.460938 35.125 C 82.660156 35.148438 82.855469 35.125 83.039062 35.039062 C 82.820312 34.925781 82.820312 34.8125 83.039062 34.710938 C 83.257812 34.886719 83.257812 35.070312 83.039062 35.25 C 82.851562 35.289062 82.65625 35.304688 82.460938 35.289062 C 82.460938 35.960938 82.460938 36.625 82.460938 37.289062 C 82.640625 37.320312 82.796875 37.265625 82.914062 37.125 C 82.894531 37.492188 82.6875 37.660156 82.289062 37.625 C 82.054688 37.65625 81.875 37.574219 81.75 37.375 C 81.710938 36.679688 81.695312 35.984375 81.710938 35.289062 C 81.609375 35.3125 81.527344 35.28125 81.460938 35.210938 C 81.878906 35.066406 82.15625 34.789062 82.289062 34.375 Z M 82.289062 34.375 "/>
<path style=" stroke:none;fill-rule:evenodd;fill:rgb(5.098039%,5.490196%,5.490196%);fill-opacity:1;" d="M 26.625 34.625 C 26.882812 34.570312 27.023438 34.664062 27.039062 34.914062 C 27.015625 35.125 26.929688 35.304688 26.789062 35.460938 C 27.117188 36.6875 26.644531 37.21875 25.375 37.039062 C 25.359375 37.152344 25.390625 37.25 25.460938 37.335938 C 25.96875 37.382812 26.46875 37.484375 26.960938 37.625 C 27.265625 38.242188 27.070312 38.617188 26.375 38.75 C 25.960938 38.804688 25.539062 38.804688 25.125 38.75 C 24.9375 38.6875 24.828125 38.5625 24.789062 38.375 C 24.867188 38.1875 24.976562 38.023438 25.125 37.875 C 24.882812 37.539062 24.90625 37.234375 25.210938 36.960938 C 24.800781 36.4375 24.773438 35.890625 25.125 35.335938 C 25.605469 35.070312 26.09375 35.058594 26.585938 35.289062 C 26.753906 35.101562 26.742188 34.917969 26.539062 34.75 C 26.585938 34.71875 26.617188 34.675781 26.625 34.625 Z M 26.625 34.625 "/>
<path style=" stroke:none;fill-rule:evenodd;fill:rgb(5.098039%,5.490196%,5.490196%);fill-opacity:1;" d="M 33.289062 34.625 C 33.546875 34.570312 33.6875 34.664062 33.710938 34.914062 C 33.679688 35.125 33.597656 35.304688 33.460938 35.460938 C 33.78125 36.6875 33.3125 37.21875 32.039062 37.039062 C 32.027344 37.152344 32.054688 37.25 32.125 37.335938 C 32.636719 37.382812 33.136719 37.484375 33.625 37.625 C 33.933594 38.242188 33.738281 38.617188 33.039062 38.75 C 32.625 38.804688 32.210938 38.804688 31.789062 38.75 C 31.605469 38.6875 31.492188 38.5625 31.460938 38.375 C 31.53125 38.1875 31.644531 38.023438 31.789062 37.875 C 31.546875 37.539062 31.578125 37.234375 31.875 36.960938 C 31.46875 36.4375 31.4375 35.890625 31.789062 35.335938 C 32.273438 35.070312 32.757812 35.058594 33.25 35.289062 C 33.421875 35.101562 33.40625 34.917969 33.210938 34.75 C 33.253906 34.71875 33.28125 34.675781 33.289062 34.625 Z M 33.289062 34.625 "/>
<path style=" stroke:none;fill-rule:evenodd;fill:rgb(5.098039%,5.490196%,5.490196%);fill-opacity:1;" d="M 44.875 34.625 C 45.132812 34.570312 45.273438 34.664062 45.289062 34.914062 C 45.265625 35.125 45.179688 35.304688 45.039062 35.460938 C 45.367188 36.6875 44.894531 37.21875 43.625 37.039062 C 43.609375 37.152344 43.640625 37.25 43.710938 37.335938 C 44.21875 37.382812 44.71875 37.484375 45.210938 37.625 C 45.515625 38.242188 45.320312 38.617188 44.625 38.75 C 44.210938 38.804688 43.789062 38.804688 43.375 38.75 C 43.1875 38.6875 43.078125 38.5625 43.039062 38.375 C 43.117188 38.1875 43.226562 38.023438 43.375 37.875 C 43.132812 37.539062 43.15625 37.234375 43.460938 36.960938 C 43.050781 36.4375 43.023438 35.890625 43.375 35.335938 C 43.855469 35.070312 44.34375 35.058594 44.835938 35.289062 C 45.003906 35.101562 44.992188 34.917969 44.789062 34.75 C 44.835938 34.71875 44.867188 34.675781 44.875 34.625 Z M 44.875 34.625 "/>
<path style=" stroke:none;fill-rule:evenodd;fill:rgb(1.568627%,1.960784%,1.960784%);fill-opacity:1;" d="M 20.460938 35.210938 C 20.460938 35.347656 20.460938 35.484375 20.460938 35.625 C 20.460938 35.664062 20.449219 35.6875 20.414062 35.710938 C 20.148438 35.488281 19.898438 35.515625 19.664062 35.789062 C 19.640625 36.375 19.609375 36.960938 19.585938 37.539062 C 19.382812 37.632812 19.175781 37.648438 18.960938 37.585938 C 18.875 36.851562 18.847656 36.117188 18.875 35.375 C 18.484375 35.398438 18.453125 35.328125 18.789062 35.164062 C 19.015625 35.109375 19.234375 35.109375 19.460938 35.164062 C 19.574219 35.265625 19.644531 35.390625 19.664062 35.539062 C 19.789062 35.414062 19.914062 35.289062 20.039062 35.164062 C 20.199219 35.101562 20.335938 35.117188 20.460938 35.210938 Z M 20.460938 35.210938 "/>
<path style=" stroke:none;fill-rule:evenodd;fill:rgb(0.392157%,0.784314%,0.784314%);fill-opacity:1;" d="M 20.789062 35.375 C 20.765625 35.320312 20.734375 35.265625 20.710938 35.210938 C 21.019531 35.078125 21.3125 35.101562 21.585938 35.289062 C 21.640625 36.039062 21.640625 36.789062 21.585938 37.539062 C 21.359375 37.652344 21.140625 37.652344 20.914062 37.539062 C 20.902344 36.804688 20.859375 36.082031 20.789062 35.375 Z M 20.789062 35.375 "/>
<path style=" stroke:none;fill-rule:evenodd;fill:rgb(3.921569%,4.313725%,4.313725%);fill-opacity:1;" d="M 22.210938 35.125 C 22.429688 35.109375 22.65625 35.125 22.875 35.164062 C 22.992188 35.265625 23.0625 35.390625 23.085938 35.539062 C 23.328125 35.140625 23.675781 35.027344 24.125 35.210938 C 24.195312 35.289062 24.265625 35.375 24.335938 35.460938 C 24.5625 36.222656 24.476562 36.945312 24.085938 37.625 C 23.867188 37.894531 23.601562 38.007812 23.289062 37.960938 C 23.570312 37.71875 23.695312 37.414062 23.664062 37.039062 C 23.738281 36.5625 23.710938 36.089844 23.585938 35.625 C 23.394531 35.414062 23.226562 35.4375 23.085938 35.710938 C 23.054688 36.320312 23.027344 36.929688 23 37.539062 C 22.800781 37.632812 22.59375 37.648438 22.375 37.585938 C 22.292969 36.851562 22.265625 36.117188 22.289062 35.375 C 21.878906 35.398438 21.851562 35.320312 22.210938 35.125 Z M 22.210938 35.125 "/>
<path style=" stroke:none;fill-rule:evenodd;fill:rgb(1.176471%,1.176471%,1.176471%);fill-opacity:1;" d="M 27.460938 35.125 C 27.75 35.082031 28.015625 35.140625 28.25 35.289062 C 28.304688 36.039062 28.304688 36.789062 28.25 37.539062 C 28.027344 37.652344 27.804688 37.652344 27.585938 37.539062 C 27.539062 36.820312 27.527344 36.097656 27.539062 35.375 C 27.128906 35.398438 27.101562 35.320312 27.460938 35.125 Z M 27.460938 35.125 "/>
<path style=" stroke:none;fill-rule:evenodd;fill:rgb(3.921569%,4.313725%,4.313725%);fill-opacity:1;" d="M 28.875 35.125 C 29.101562 35.109375 29.320312 35.125 29.539062 35.164062 C 29.65625 35.265625 29.726562 35.390625 29.75 35.539062 C 29.996094 35.140625 30.34375 35.027344 30.789062 35.210938 C 30.859375 35.289062 30.929688 35.375 31 35.460938 C 31.226562 36.222656 31.148438 36.945312 30.75 37.625 C 30.53125 37.894531 30.269531 38.007812 29.960938 37.960938 C 30.238281 37.71875 30.363281 37.414062 30.335938 37.039062 C 30.40625 36.5625 30.375 36.089844 30.25 35.625 C 30.0625 35.414062 29.894531 35.4375 29.75 35.710938 C 29.722656 36.320312 29.695312 36.929688 29.664062 37.539062 C 29.46875 37.632812 29.257812 37.648438 29.039062 37.585938 C 28.960938 36.851562 28.929688 36.117188 28.960938 35.375 C 28.546875 35.398438 28.515625 35.320312 28.875 35.125 Z M 28.875 35.125 "/>
<path style=" stroke:none;fill-rule:evenodd;fill:rgb(5.882353%,6.27451%,6.27451%);fill-opacity:1;" d="M 37.875 35.539062 C 37.875 35.515625 37.875 35.484375 37.875 35.460938 C 38.101562 35.152344 38.410156 35.054688 38.789062 35.164062 C 39.082031 35.476562 39.195312 35.851562 39.125 36.289062 C 39.242188 37.167969 38.898438 37.75 38.085938 38.039062 C 38.039062 38.015625 38 37.984375 37.960938 37.960938 C 38.125 37.859375 38.25 37.71875 38.335938 37.539062 C 38.390625 36.902344 38.390625 36.265625 38.335938 35.625 C 38.203125 35.445312 38.050781 35.421875 37.875 35.539062 Z M 37.875 35.539062 "/>
<path style=" stroke:none;fill-rule:evenodd;fill:rgb(5.098039%,5.882353%,5.490196%);fill-opacity:1;" d="M 40.375 35.125 C 40.65625 35.109375 40.929688 35.125 41.210938 35.164062 C 41.492188 35.25 41.585938 35.433594 41.5 35.710938 C 41.101562 36.011719 40.699219 36.304688 40.289062 36.585938 C 40.507812 37.28125 40.9375 37.460938 41.585938 37.125 C 41.492188 37.351562 41.3125 37.507812 41.039062 37.585938 C 39.867188 37.6875 39.382812 37.144531 39.585938 35.960938 C 39.75 35.582031 40.015625 35.304688 40.375 35.125 Z M 40.375 35.125 "/>
<path style=" stroke:none;fill-rule:evenodd;fill:rgb(4.313725%,4.705882%,4.705882%);fill-opacity:1;" d="M 46.039062 35.125 C 46.347656 35.109375 46.65625 35.125 46.960938 35.164062 C 47.15625 35.195312 47.304688 35.292969 47.414062 35.460938 C 47.535156 36.0625 47.578125 36.671875 47.539062 37.289062 C 47.859375 37.351562 47.859375 37.445312 47.539062 37.585938 C 47.234375 37.6875 46.984375 37.617188 46.789062 37.375 C 45.882812 37.90625 45.476562 37.65625 45.585938 36.625 C 45.875 36.324219 46.21875 36.117188 46.625 36 C 46.914062 35.453125 46.742188 35.230469 46.125 35.335938 C 46.085938 35.367188 46.058594 35.410156 46.039062 35.460938 C 46.171875 35.597656 46.226562 35.765625 46.210938 35.960938 C 46.066406 35.96875 45.929688 35.957031 45.789062 35.914062 C 45.648438 35.582031 45.734375 35.320312 46.039062 35.125 Z M 46.039062 35.125 "/>
<path style=" stroke:none;fill-rule:evenodd;fill:rgb(2.352941%,2.745098%,2.745098%);fill-opacity:1;" d="M 48.125 35.125 C 48.351562 35.109375 48.570312 35.125 48.789062 35.164062 C 48.90625 35.265625 48.976562 35.390625 49 35.539062 C 49.125 35.414062 49.25 35.289062 49.375 35.164062 C 49.871094 35.082031 49.996094 35.261719 49.75 35.710938 C 49.484375 35.488281 49.234375 35.515625 49 35.789062 C 48.972656 36.375 48.945312 36.960938 48.914062 37.539062 C 48.695312 37.652344 48.472656 37.652344 48.25 37.539062 C 48.210938 36.820312 48.195312 36.097656 48.210938 35.375 C 47.796875 35.398438 47.765625 35.320312 48.125 35.125 Z M 48.125 35.125 "/>
<path style=" stroke:none;fill-rule:evenodd;fill:rgb(5.098039%,5.882353%,5.490196%);fill-opacity:1;" d="M 53.375 35.125 C 53.65625 35.109375 53.929688 35.125 54.210938 35.164062 C 54.492188 35.25 54.585938 35.433594 54.5 35.710938 C 54.101562 36.011719 53.699219 36.304688 53.289062 36.585938 C 53.507812 37.28125 53.9375 37.460938 54.585938 37.125 C 54.492188 37.351562 54.3125 37.507812 54.039062 37.585938 C 52.867188 37.6875 52.382812 37.144531 52.585938 35.960938 C 52.75 35.582031 53.015625 35.304688 53.375 35.125 Z M 53.375 35.125 "/>
<path style=" stroke:none;fill-rule:evenodd;fill:rgb(3.921569%,4.313725%,4.313725%);fill-opacity:1;" d="M 54.960938 35.125 C 55.179688 35.109375 55.40625 35.125 55.625 35.164062 C 55.742188 35.265625 55.8125 35.390625 55.835938 35.539062 C 56.078125 35.140625 56.425781 35.027344 56.875 35.210938 C 56.945312 35.289062 57.015625 35.375 57.085938 35.460938 C 57.3125 36.222656 57.226562 36.945312 56.835938 37.625 C 56.617188 37.894531 56.351562 38.007812 56.039062 37.960938 C 56.320312 37.71875 56.445312 37.414062 56.414062 37.039062 C 56.488281 36.5625 56.460938 36.089844 56.335938 35.625 C 56.144531 35.414062 55.976562 35.4375 55.835938 35.710938 C 55.804688 36.320312 55.777344 36.929688 55.75 37.539062 C 55.550781 37.632812 55.34375 37.648438 55.125 37.585938 C 55.042969 36.851562 55.015625 36.117188 55.039062 35.375 C 54.628906 35.398438 54.601562 35.320312 54.960938 35.125 Z M 54.960938 35.125 "/>
<path style=" stroke:none;fill-rule:evenodd;fill:rgb(3.921569%,4.313725%,4.313725%);fill-opacity:1;" d="M 60.960938 35.125 C 62.289062 35.054688 62.773438 35.664062 62.414062 36.960938 C 62.109375 37.5625 61.625 37.769531 60.960938 37.585938 C 60.328125 37.179688 60.121094 36.609375 60.335938 35.875 C 60.46875 35.558594 60.679688 35.308594 60.960938 35.125 Z M 60.960938 35.125 "/>
<path style=" stroke:none;fill-rule:evenodd;fill:rgb(4.705882%,5.098039%,5.098039%);fill-opacity:1;" d="M 63.875 35.125 C 64.1875 35.089844 64.480469 35.144531 64.75 35.289062 C 65.050781 35.886719 65.300781 36.5 65.5 37.125 C 65.78125 36.480469 65.851562 35.8125 65.710938 35.125 C 65.847656 35.125 65.984375 35.125 66.125 35.125 C 66.191406 36.164062 65.929688 37.109375 65.335938 37.960938 C 64.875 38.554688 64.28125 38.789062 63.539062 38.664062 C 63.46875 38.554688 63.441406 38.429688 63.460938 38.289062 C 63.640625 38.273438 63.78125 38.34375 63.875 38.5 C 64.335938 38.53125 64.695312 38.347656 64.960938 37.960938 C 64.726562 37.132812 64.433594 36.328125 64.085938 35.539062 C 63.984375 35.425781 63.859375 35.355469 63.710938 35.335938 C 63.78125 35.273438 63.835938 35.203125 63.875 35.125 Z M 63.875 35.125 "/>
<path style=" stroke:none;fill-rule:evenodd;fill:rgb(3.921569%,4.313725%,4.313725%);fill-opacity:1;" d="M 67.125 35.125 C 68.453125 35.054688 68.941406 35.664062 68.585938 36.960938 C 68.28125 37.5625 67.792969 37.769531 67.125 37.585938 C 66.496094 37.179688 66.289062 36.609375 66.5 35.875 C 66.636719 35.558594 66.84375 35.308594 67.125 35.125 Z M 67.125 35.125 "/>
<path style=" stroke:none;fill-rule:evenodd;fill:rgb(3.529412%,3.921569%,3.921569%);fill-opacity:1;" d="M 69.210938 35.125 C 69.476562 35.085938 69.710938 35.140625 69.914062 35.289062 C 69.945312 35.929688 69.972656 36.570312 70 37.210938 C 70.210938 37.320312 70.378906 37.265625 70.5 37.039062 C 70.539062 36.515625 70.554688 35.984375 70.539062 35.460938 C 70.25 35.441406 70.25 35.34375 70.539062 35.164062 C 70.769531 35.105469 70.992188 35.117188 71.210938 35.210938 C 71.277344 35.898438 71.320312 36.59375 71.335938 37.289062 C 71.417969 37.332031 71.515625 37.34375 71.625 37.335938 C 71.375 37.601562 71.070312 37.683594 70.710938 37.585938 C 70.609375 37.507812 70.539062 37.410156 70.5 37.289062 C 70.09375 37.683594 69.679688 37.710938 69.25 37.375 C 69.210938 36.734375 69.195312 36.097656 69.210938 35.460938 C 69.121094 35.46875 69.039062 35.457031 68.960938 35.414062 C 69.058594 35.328125 69.140625 35.234375 69.210938 35.125 Z M 69.210938 35.125 "/>
<path style=" stroke:none;fill-rule:evenodd;fill:rgb(2.352941%,2.745098%,2.745098%);fill-opacity:1;" d="M 71.875 35.125 C 72.101562 35.109375 72.320312 35.125 72.539062 35.164062 C 72.65625 35.265625 72.726562 35.390625 72.75 35.539062 C 72.875 35.414062 73 35.289062 73.125 35.164062 C 73.621094 35.082031 73.746094 35.261719 73.5 35.710938 C 73.234375 35.488281 72.984375 35.515625 72.75 35.789062 C 72.722656 36.375 72.695312 36.960938 72.664062 37.539062 C 72.445312 37.652344 72.222656 37.652344 72 37.539062 C 71.960938 36.820312 71.945312 36.097656 71.960938 35.375 C 71.546875 35.398438 71.515625 35.320312 71.875 35.125 Z M 71.875 35.125 "/>
<path style=" stroke:none;fill-rule:evenodd;fill:rgb(3.137255%,3.529412%,3.529412%);fill-opacity:1;" d="M 75.039062 35.125 C 75.382812 35.0625 75.675781 35.148438 75.914062 35.375 C 76.296875 35.046875 76.6875 35.046875 77.085938 35.375 C 77.472656 36.039062 77.472656 36.707031 77.085938 37.375 C 76.90625 37.570312 76.683594 37.65625 76.414062 37.625 C 76.21875 37.640625 76.054688 37.585938 75.914062 37.460938 C 75.902344 37.90625 75.859375 38.351562 75.789062 38.789062 C 75.558594 38.921875 75.351562 38.890625 75.164062 38.710938 C 75.125 37.597656 75.109375 36.484375 75.125 35.375 C 74.710938 35.398438 74.683594 35.320312 75.039062 35.125 Z M 75.039062 35.125 "/>
<path style=" stroke:none;fill-rule:evenodd;fill:rgb(4.313725%,4.705882%,4.705882%);fill-opacity:1;" d="M 79.539062 35.125 C 79.847656 35.109375 80.15625 35.125 80.460938 35.164062 C 80.65625 35.195312 80.804688 35.292969 80.914062 35.460938 C 81.035156 36.0625 81.078125 36.671875 81.039062 37.289062 C 81.359375 37.351562 81.359375 37.445312 81.039062 37.585938 C 80.734375 37.6875 80.484375 37.617188 80.289062 37.375 C 79.382812 37.90625 78.976562 37.65625 79.085938 36.625 C 79.375 36.324219 79.71875 36.117188 80.125 36 C 80.414062 35.453125 80.242188 35.230469 79.625 35.335938 C 79.585938 35.367188 79.558594 35.410156 79.539062 35.460938 C 79.671875 35.597656 79.726562 35.765625 79.710938 35.960938 C 79.566406 35.96875 79.429688 35.957031 79.289062 35.914062 C 79.148438 35.582031 79.234375 35.320312 79.539062 35.125 Z M 79.539062 35.125 "/>
<path style=" stroke:none;fill-rule:evenodd;fill:rgb(5.098039%,5.882353%,5.490196%);fill-opacity:1;" d="M 83.960938 35.125 C 84.238281 35.109375 84.515625 35.125 84.789062 35.164062 C 85.074219 35.25 85.171875 35.433594 85.085938 35.710938 C 84.6875 36.011719 84.28125 36.304688 83.875 36.585938 C 84.09375 37.28125 84.523438 37.460938 85.164062 37.125 C 85.078125 37.351562 84.894531 37.507812 84.625 37.585938 C 83.453125 37.6875 82.964844 37.144531 83.164062 35.960938 C 83.335938 35.582031 83.601562 35.304688 83.960938 35.125 Z M 83.960938 35.125 "/>
<path style=" stroke:none;fill-rule:evenodd;fill:rgb(32.156863%,34.901961%,34.901961%);fill-opacity:1;" d="M 20.460938 35.210938 C 20.539062 35.320312 20.625 35.320312 20.710938 35.210938 C 20.734375 35.265625 20.765625 35.320312 20.789062 35.375 C 20.710938 35.375 20.625 35.375 20.539062 35.375 C 20.5625 35.484375 20.53125 35.566406 20.460938 35.625 C 20.460938 35.484375 20.460938 35.347656 20.460938 35.210938 Z M 20.460938 35.210938 "/>
<path style=" stroke:none;fill-rule:evenodd;fill:rgb(92.54902%,92.941176%,92.941176%);fill-opacity:1;" d="M 25.789062 35.289062 C 25.96875 35.296875 26.09375 35.382812 26.164062 35.539062 C 26.222656 35.902344 26.222656 36.265625 26.164062 36.625 C 26.042969 36.914062 25.875 36.945312 25.664062 36.710938 C 25.46875 36.203125 25.507812 35.734375 25.789062 35.289062 Z M 25.789062 35.289062 "/>
<path style=" stroke:none;fill-rule:evenodd;fill:rgb(92.54902%,92.941176%,92.941176%);fill-opacity:1;" d="M 32.460938 35.289062 C 32.632812 35.296875 32.757812 35.382812 32.835938 35.539062 C 32.890625 35.902344 32.890625 36.265625 32.835938 36.625 C 32.710938 36.914062 32.542969 36.945312 32.335938 36.710938 C 32.132812 36.203125 32.175781 35.734375 32.460938 35.289062 Z M 32.460938 35.289062 "/>
<path style=" stroke:none;fill-rule:evenodd;fill:rgb(93.333333%,93.72549%,93.72549%);fill-opacity:1;" d="M 40.460938 35.375 C 40.851562 35.375 40.976562 35.566406 40.835938 35.960938 C 40.320312 36.46875 40.15625 36.359375 40.335938 35.625 C 40.375 35.539062 40.417969 35.457031 40.460938 35.375 Z M 40.460938 35.375 "/>
<path style=" stroke:none;fill-rule:evenodd;fill:rgb(92.54902%,92.941176%,92.941176%);fill-opacity:1;" d="M 44.039062 35.289062 C 44.21875 35.296875 44.34375 35.382812 44.414062 35.539062 C 44.472656 35.902344 44.472656 36.265625 44.414062 36.625 C 44.292969 36.914062 44.125 36.945312 43.914062 36.710938 C 43.71875 36.203125 43.757812 35.734375 44.039062 35.289062 Z M 44.039062 35.289062 "/>
<path style=" stroke:none;fill-rule:evenodd;fill:rgb(94.901961%,95.294118%,95.294118%);fill-opacity:1;" d="M 50.960938 35.375 C 51.140625 35.347656 51.296875 35.40625 51.414062 35.539062 C 51.472656 36.015625 51.472656 36.484375 51.414062 36.960938 C 51.234375 37.460938 51.011719 37.492188 50.75 37.039062 C 50.695312 36.597656 50.695312 36.152344 50.75 35.710938 C 50.804688 35.585938 50.875 35.472656 50.960938 35.375 Z M 50.960938 35.375 "/>
<path style=" stroke:none;fill-rule:evenodd;fill:rgb(93.333333%,93.72549%,93.72549%);fill-opacity:1;" d="M 53.460938 35.375 C 53.851562 35.375 53.976562 35.566406 53.835938 35.960938 C 53.320312 36.46875 53.15625 36.359375 53.335938 35.625 C 53.375 35.539062 53.417969 35.457031 53.460938 35.375 Z M 53.460938 35.375 "/>
<path style=" stroke:none;fill-rule:evenodd;fill:rgb(94.117647%,94.509804%,94.509804%);fill-opacity:1;" d="M 61.210938 35.375 C 61.484375 35.335938 61.664062 35.445312 61.75 35.710938 C 61.832031 36.25 61.789062 36.773438 61.625 37.289062 C 61.328125 37.445312 61.148438 37.363281 61.085938 37.039062 C 60.996094 36.46875 61.039062 35.914062 61.210938 35.375 Z M 61.210938 35.375 "/>
<path style=" stroke:none;fill-rule:evenodd;fill:rgb(94.117647%,94.509804%,94.509804%);fill-opacity:1;" d="M 67.375 35.375 C 67.652344 35.335938 67.835938 35.445312 67.914062 35.710938 C 68 36.25 67.957031 36.773438 67.789062 37.289062 C 67.492188 37.445312 67.3125 37.363281 67.25 37.039062 C 67.164062 36.46875 67.203125 35.914062 67.375 35.375 Z M 67.375 35.375 "/>
<path style=" stroke:none;fill-rule:evenodd;fill:rgb(93.333333%,93.72549%,93.72549%);fill-opacity:1;" d="M 84.039062 35.375 C 84.433594 35.375 84.558594 35.566406 84.414062 35.960938 C 83.90625 36.46875 83.738281 36.359375 83.914062 35.625 C 83.960938 35.539062 84 35.457031 84.039062 35.375 Z M 84.039062 35.375 "/>
<path style=" stroke:none;fill-rule:evenodd;fill:rgb(97.254902%,97.254902%,97.254902%);fill-opacity:1;" d="M 76.039062 35.375 C 76.242188 35.367188 76.394531 35.449219 76.5 35.625 C 76.570312 36.160156 76.546875 36.6875 76.414062 37.210938 C 76.25 37.429688 76.085938 37.429688 75.914062 37.210938 C 75.859375 36.652344 75.859375 36.097656 75.914062 35.539062 C 75.976562 35.496094 76.015625 35.441406 76.039062 35.375 Z M 76.039062 35.375 "/>
<path style=" stroke:none;fill-rule:evenodd;fill:rgb(92.156863%,92.54902%,92.156863%);fill-opacity:1;" d="M 46.460938 36.210938 C 46.570312 36.195312 46.664062 36.222656 46.75 36.289062 C 46.804688 36.570312 46.804688 36.847656 46.75 37.125 C 46.628906 37.265625 46.476562 37.320312 46.289062 37.289062 C 46.140625 36.890625 46.195312 36.53125 46.460938 36.210938 Z M 46.460938 36.210938 "/>
<path style=" stroke:none;fill-rule:evenodd;fill:rgb(92.156863%,92.54902%,92.156863%);fill-opacity:1;" d="M 79.960938 36.210938 C 80.070312 36.195312 80.164062 36.222656 80.25 36.289062 C 80.304688 36.570312 80.304688 36.847656 80.25 37.125 C 80.128906 37.265625 79.976562 37.320312 79.789062 37.289062 C 79.640625 36.890625 79.695312 36.53125 79.960938 36.210938 Z M 79.960938 36.210938 "/>
<path style=" stroke:none;fill-rule:evenodd;fill:rgb(86.666667%,63.137255%,36.862745%);fill-opacity:1;" d="M 25.375 37.960938 C 25.679688 37.945312 25.988281 37.960938 26.289062 38 C 26.625 38.195312 26.625 38.390625 26.289062 38.585938 C 25.984375 38.640625 25.679688 38.640625 25.375 38.585938 C 25.160156 38.375 25.160156 38.167969 25.375 37.960938 Z M 25.375 37.960938 "/>
<path style=" stroke:none;fill-rule:evenodd;fill:rgb(86.666667%,63.137255%,36.862745%);fill-opacity:1;" d="M 32.039062 37.960938 C 32.347656 37.945312 32.65625 37.960938 32.960938 38 C 33.289062 38.195312 33.289062 38.390625 32.960938 38.585938 C 32.652344 38.640625 32.347656 38.640625 32.039062 38.585938 C 31.828125 38.375 31.828125 38.167969 32.039062 37.960938 Z M 32.039062 37.960938 "/>
<path style=" stroke:none;fill-rule:evenodd;fill:rgb(86.666667%,63.137255%,36.862745%);fill-opacity:1;" d="M 43.625 37.960938 C 43.929688 37.945312 44.238281 37.960938 44.539062 38 C 44.875 38.195312 44.875 38.390625 44.539062 38.585938 C 44.234375 38.640625 43.929688 38.640625 43.625 38.585938 C 43.410156 38.375 43.410156 38.167969 43.625 37.960938 Z M 43.625 37.960938 "/>
<path style=" stroke:none;fill-rule:evenodd;fill:rgb(86.666667%,63.137255%,36.862745%);fill-opacity:1;" d="M 49.539062 45.039062 C 50.050781 44.953125 50.484375 45.089844 50.835938 45.460938 C 50.96875 46.675781 50.992188 47.898438 50.914062 49.125 C 50.632812 49.703125 50.179688 49.910156 49.539062 49.75 C 49.273438 49.617188 49.09375 49.414062 49 49.125 C 48.945312 47.960938 48.945312 46.789062 49 45.625 C 49.140625 45.386719 49.320312 45.195312 49.539062 45.039062 Z M 49.539062 45.039062 "/>
<path style=" stroke:none;fill-rule:evenodd;fill:rgb(86.666667%,63.137255%,36.862745%);fill-opacity:1;" d="M 44.460938 47.460938 C 44.816406 47.421875 45.148438 47.488281 45.460938 47.664062 C 46.3125 48.460938 47.101562 49.3125 47.835938 50.210938 C 47.859375 51.164062 47.398438 51.5625 46.460938 51.414062 C 45.523438 50.625 44.679688 49.75 43.914062 48.789062 C 43.757812 48.199219 43.9375 47.753906 44.460938 47.460938 Z M 44.460938 47.460938 "/>
<path style=" stroke:none;fill-rule:evenodd;fill:rgb(86.666667%,63.137255%,36.862745%);fill-opacity:1;" d="M 54.789062 47.460938 C 55.898438 47.46875 56.273438 47.996094 55.914062 49.039062 C 55.09375 49.890625 54.25 50.710938 53.375 51.5 C 52.335938 51.542969 51.929688 51.054688 52.164062 50.039062 C 52.976562 49.105469 53.851562 48.242188 54.789062 47.460938 Z M 54.789062 47.460938 "/>
<path style=" stroke:none;fill-rule:evenodd;fill:rgb(0.392157%,0.392157%,0.392157%);fill-opacity:1;" d="M 47.789062 57.210938 C 47.367188 57.523438 46.921875 57.539062 46.460938 57.25 C 45.40625 56.140625 44.25 55.152344 43 54.289062 C 42.945312 58.179688 42.945312 62.070312 43 65.960938 C 43.335938 66.289062 43.664062 66.625 44 66.960938 C 44.429688 67.382812 44.484375 67.855469 44.164062 68.375 C 43.683594 68.859375 43.171875 68.902344 42.625 68.5 C 41.078125 66.867188 39.492188 65.257812 37.875 63.664062 C 34.570312 63.597656 31.265625 63.609375 27.960938 63.710938 C 30.480469 69.328125 34.5625 73.367188 40.210938 75.835938 C 40.875 76.054688 41.546875 76.277344 42.210938 76.5 C 42.589844 76.78125 42.757812 77.15625 42.710938 77.625 C 42.460938 78.230469 42.015625 78.46875 41.375 78.335938 C 35.164062 76.257812 30.429688 72.382812 27.164062 66.710938 C 24.335938 61.386719 23.671875 55.804688 25.164062 49.960938 C 25.507812 49.566406 25.9375 49.328125 26.460938 49.25 C 34.785156 47.71875 41.9375 49.921875 47.914062 55.875 C 48.210938 56.351562 48.171875 56.796875 47.789062 57.210938 Z M 47.789062 57.210938 "/>
<path style=" stroke:none;fill-rule:evenodd;fill:rgb(0.784314%,0.784314%,0.784314%);fill-opacity:1;" d="M 46.039062 78.210938 C 45.539062 76.960938 45.246094 75.65625 45.164062 74.289062 C 44.734375 68.65625 46.136719 63.546875 49.375 58.960938 C 53.015625 53.886719 57.875 50.625 63.960938 49.164062 C 67.101562 48.535156 70.242188 48.5625 73.375 49.25 C 73.929688 49.3125 74.382812 49.546875 74.75 49.960938 C 76.757812 58.820312 74.523438 66.417969 68.039062 72.75 C 62.757812 77.667969 56.507812 79.78125 49.289062 79.085938 C 48.417969 78.976562 47.554688 78.8125 46.710938 78.585938 C 46.445312 78.523438 46.226562 78.398438 46.039062 78.210938 Z M 46.039062 78.210938 "/>
<path style=" stroke:none;fill-rule:evenodd;fill:rgb(15.686275%,21.176471%,9.411765%);fill-opacity:1;" d="M 34.125 50.875 C 34.152344 52.945312 34.125 55 34.039062 57.039062 C 32.058594 55.015625 30.058594 53 28.039062 51 C 30.0625 50.664062 32.089844 50.625 34.125 50.875 Z M 34.125 50.875 "/>
<path style=" stroke:none;fill-rule:evenodd;fill:rgb(37.647059%,42.352941%,21.960784%);fill-opacity:1;" d="M 64.625 58.210938 C 64.597656 55.8125 64.625 53.421875 64.710938 51.039062 C 67.09375 50.613281 69.484375 50.601562 71.875 51 C 69.46875 53.421875 67.054688 55.820312 64.625 58.210938 Z M 64.625 58.210938 "/>
<path style=" stroke:none;fill-rule:evenodd;fill:rgb(86.666667%,63.137255%,36.862745%);fill-opacity:1;" d="M 64.710938 51.039062 C 64.625 53.421875 64.597656 55.8125 64.625 58.210938 C 64.570312 57.089844 64.539062 55.90625 64.539062 54.664062 C 64.539062 53.429688 64.597656 52.21875 64.710938 51.039062 Z M 64.710938 51.039062 "/>
<path style=" stroke:none;fill-rule:evenodd;fill:rgb(15.686275%,21.176471%,9.411765%);fill-opacity:1;" d="M 36.125 51.289062 C 37.785156 51.664062 39.367188 52.246094 40.875 53.039062 C 40.972656 56.652344 40.984375 60.265625 40.914062 63.875 C 39.335938 62.289062 37.75 60.710938 36.164062 59.125 C 36.125 56.515625 36.109375 53.902344 36.125 51.289062 Z M 36.125 51.289062 "/>
<path style=" stroke:none;fill-rule:evenodd;fill:rgb(37.647059%,42.352941%,21.960784%);fill-opacity:1;" d="M 55.960938 66.960938 C 55.875 63.027344 55.847656 59.085938 55.875 55.125 C 57.832031 53.546875 60.023438 52.382812 62.460938 51.625 C 62.554688 54.539062 62.570312 57.457031 62.5 60.375 C 60.300781 62.5625 58.117188 64.757812 55.960938 66.960938 Z M 55.960938 66.960938 "/>
<path style=" stroke:none;fill-rule:evenodd;fill:rgb(15.686275%,21.176471%,9.411765%);fill-opacity:1;" d="M 26.625 52.460938 C 29.691406 55.484375 32.75 58.523438 35.789062 61.585938 C 32.929688 61.640625 30.070312 61.640625 27.210938 61.585938 C 26.34375 58.585938 26.148438 55.546875 26.625 52.460938 Z M 26.625 52.460938 "/>
<path style=" stroke:none;fill-rule:evenodd;fill:rgb(37.647059%,42.352941%,21.960784%);fill-opacity:1;" d="M 73.210938 52.460938 C 73.914062 56.414062 73.46875 60.25 71.875 63.960938 C 68.484375 64.054688 65.097656 64.070312 61.710938 64 C 65.558594 60.164062 69.390625 56.316406 73.210938 52.460938 Z M 73.210938 52.460938 "/>
<path style=" stroke:none;fill-rule:evenodd;fill:rgb(15.686275%,21.176471%,9.411765%);fill-opacity:1;" d="M 47.789062 57.210938 C 48.335938 57.773438 48.867188 58.355469 49.375 58.960938 C 46.136719 63.546875 44.734375 68.65625 45.164062 74.289062 C 45.246094 75.65625 45.539062 76.960938 46.039062 78.210938 C 44.921875 78.070312 43.808594 77.875 42.710938 77.625 C 42.757812 77.15625 42.589844 76.78125 42.210938 76.5 C 41.546875 76.277344 40.875 76.054688 40.210938 75.835938 C 34.5625 73.367188 30.480469 69.328125 27.960938 63.710938 C 31.265625 63.609375 34.570312 63.597656 37.875 63.664062 C 39.492188 65.257812 41.078125 66.867188 42.625 68.5 C 43.171875 68.902344 43.683594 68.859375 44.164062 68.375 C 44.484375 67.855469 44.429688 67.382812 44 66.960938 C 43.664062 66.625 43.335938 66.289062 43 65.960938 C 42.945312 62.070312 42.945312 58.179688 43 54.289062 C 44.25 55.152344 45.40625 56.140625 46.460938 57.25 C 46.921875 57.539062 47.367188 57.523438 47.789062 57.210938 Z M 47.789062 57.210938 "/>
<path style=" stroke:none;fill-rule:evenodd;fill:rgb(86.666667%,63.137255%,36.862745%);fill-opacity:1;" d="M 34.125 50.875 C 34.234375 52.945312 34.234375 55.027344 34.125 57.125 C 34.074219 57.117188 34.046875 57.085938 34.039062 57.039062 C 34.125 55 34.152344 52.945312 34.125 50.875 Z M 34.125 50.875 "/>
<path style=" stroke:none;fill-rule:evenodd;fill:rgb(86.666667%,63.137255%,36.862745%);fill-opacity:1;" d="M 55.875 55.125 C 55.847656 59.085938 55.875 63.027344 55.960938 66.960938 C 55.953125 67.003906 55.925781 67.03125 55.875 67.039062 C 55.765625 63.054688 55.765625 59.085938 55.875 55.125 Z M 55.875 55.125 "/>
<path style=" stroke:none;fill-rule:evenodd;fill:rgb(37.647059%,42.352941%,21.960784%);fill-opacity:1;" d="M 53.789062 56.875 C 53.890625 60.945312 53.902344 65.027344 53.835938 69.125 C 51.695312 71.265625 49.554688 73.402344 47.414062 75.539062 C 46.398438 68.226562 48.523438 62.007812 53.789062 56.875 Z M 53.789062 56.875 "/>
<path style=" stroke:none;fill-rule:evenodd;fill:rgb(37.647059%,42.352941%,21.960784%);fill-opacity:1;" d="M 66.039062 71.789062 C 62.027344 71.820312 58.027344 71.789062 54.039062 71.710938 C 55.886719 69.820312 57.75 67.945312 59.625 66.085938 C 63.347656 66.015625 67.070312 66.027344 70.789062 66.125 C 69.511719 68.265625 67.929688 70.15625 66.039062 71.789062 Z M 66.039062 71.789062 "/>
<path style=" stroke:none;fill-rule:evenodd;fill:rgb(86.666667%,63.137255%,36.862745%);fill-opacity:1;" d="M 34.289062 67.960938 C 35.277344 67.820312 35.734375 68.234375 35.664062 69.210938 C 35.40625 69.828125 34.945312 70.039062 34.289062 69.835938 C 33.757812 69.554688 33.578125 69.125 33.75 68.539062 C 33.890625 68.304688 34.070312 68.109375 34.289062 67.960938 Z M 34.289062 67.960938 "/>
<path style=" stroke:none;fill-rule:evenodd;fill:rgb(86.666667%,63.137255%,36.862745%);fill-opacity:1;" d="M 36.875 70.125 C 37.125 70.109375 37.375 70.125 37.625 70.164062 C 39.410156 71.445312 41.355469 72.421875 43.460938 73.085938 C 44 73.507812 44.09375 74.023438 43.75 74.625 C 43.398438 74.921875 42.996094 75.015625 42.539062 74.914062 C 40.273438 74.179688 38.203125 73.078125 36.335938 71.625 C 36.074219 70.953125 36.253906 70.453125 36.875 70.125 Z M 36.875 70.125 "/>
<path style=" stroke:none;fill-rule:evenodd;fill:rgb(86.666667%,63.137255%,36.862745%);fill-opacity:1;" d="M 54.039062 71.710938 C 58.027344 71.789062 62.027344 71.820312 66.039062 71.789062 C 62.027344 71.902344 58 71.902344 53.960938 71.789062 C 53.96875 71.742188 53.996094 71.710938 54.039062 71.710938 Z M 54.039062 71.710938 "/>
<path style=" stroke:none;fill-rule:evenodd;fill:rgb(86.666667%,63.137255%,36.862745%);fill-opacity:1;" d="M 51.875 73.875 C 55.722656 73.777344 59.585938 73.765625 63.460938 73.835938 C 63.414062 73.890625 63.359375 73.9375 63.289062 73.960938 C 59.5 73.875 55.695312 73.847656 51.875 73.875 Z M 51.875 73.875 "/>
<path style=" stroke:none;fill-rule:evenodd;fill:rgb(37.647059%,42.352941%,21.960784%);fill-opacity:1;" d="M 51.875 73.875 C 55.695312 73.847656 59.5 73.875 63.289062 73.960938 C 58.859375 76.773438 54.054688 77.757812 48.875 76.914062 C 49.894531 75.914062 50.894531 74.898438 51.875 73.875 Z M 51.875 73.875 "/>
</g>
</svg>
